<svg width="94" height="34" viewBox="0 0 94 34" fill="none" xmlns="http://www.w3.org/2000/svg">
<path d="M18.3194 11.2C17.8927 11.8133 17.586 12.44 17.3994 13.08C17.2394 13.72 17.1594 14.5467 17.1594 15.56V26.72C17.1594 27.28 17.2794 27.7467 17.5194 28.12L17.8794 28.6L17.5194 29H13.3594L4.47936 13.68V23.76C4.47936 24.8267 4.55936 25.68 4.71936 26.32C4.90602 26.9333 5.21269 27.5333 5.63935 28.12L5.99936 28.6L5.63935 29H1.23936L0.959351 28.28C1.65269 28.0933 2.13269 27.92 2.39936 27.76C2.69269 27.6 2.89269 27.3733 2.99935 27.08C3.10602 26.7867 3.15936 26.32 3.15936 25.68V15.12C3.15936 13.9467 3.05269 13.0933 2.83936 12.56C2.62602 12.0267 2.15936 11.4533 1.43936 10.84L1.75936 10.32H6.95936L15.8794 25.76V13.64C15.8794 12.84 15.706 12.28 15.3594 11.96C15.0394 11.64 14.3594 11.3333 13.3194 11.04L13.5594 10.32H18.3194L18.6794 10.76L18.3194 11.2ZM30.0638 25.36C29.6904 26.5333 29.0371 27.4933 28.1038 28.24C27.1971 28.9867 26.2238 29.36 25.1838 29.36C24.0104 29.36 23.1438 28.9867 22.5838 28.24C22.0238 27.4933 21.7438 26.3467 21.7438 24.8V18.28C21.7438 17.9067 21.5704 17.72 21.2238 17.72H19.9838L19.8638 17.28C20.3971 16.8267 21.0638 16.4533 21.8638 16.16C22.6638 15.8667 23.4504 15.72 24.2238 15.72C24.5704 15.72 24.8371 15.8 25.0238 15.96C25.2371 16.12 25.3438 16.3333 25.3438 16.6V24.6C25.3438 25.5067 25.4771 26.2133 25.7438 26.72C26.0104 27.2 26.3838 27.44 26.8638 27.44C27.8504 27.44 28.6371 26.84 29.2238 25.64C29.8371 24.4133 30.1438 22.8267 30.1438 20.88C30.1438 19.84 30.0638 19.04 29.9037 18.48C29.7704 17.8933 29.5171 17.3867 29.1438 16.96L28.7838 16.52L29.1038 16.16L33.7038 15.8V26.72C33.7038 27.52 33.9438 27.92 34.4238 27.92C34.9304 27.92 35.4238 27.72 35.9038 27.32L36.2238 27.72C35.2904 28.8133 34.1304 29.36 32.7438 29.36C31.7304 29.36 31.0238 29.0667 30.6238 28.48C30.2504 27.8933 30.0638 26.8533 30.0638 25.36ZM41.8522 29.36C40.7589 29.36 39.9722 29.12 39.4922 28.64C39.0122 28.1333 38.7722 27.32 38.7722 26.2V17.72H36.7722C36.7722 17.2667 36.7989 16.9733 36.8522 16.84C36.9055 16.7067 37.0655 16.6 37.3322 16.52C38.2122 16.28 38.9055 15.9067 39.4122 15.4C39.9189 14.8933 40.3322 14.16 40.6522 13.2C40.7322 12.9067 40.8655 12.7333 41.0522 12.68C41.2389 12.6 41.6922 12.56 42.4122 12.56V16.16H45.6922C45.6922 16.5067 45.6389 16.8267 45.5322 17.12C45.4255 17.3867 45.2789 17.5867 45.0922 17.72H42.4122V26.72C42.4122 27.52 42.7455 27.92 43.4122 27.92C43.7055 27.92 44.0255 27.8267 44.3722 27.64C44.7455 27.4533 45.0789 27.2 45.3722 26.88L45.6922 27.28C44.5455 28.6667 43.2655 29.36 41.8522 29.36ZM55.6244 15.72C56.4777 15.72 57.171 15.9733 57.7044 16.48C58.2377 16.96 58.5044 17.5867 58.5044 18.36C58.5044 19.08 58.291 19.6667 57.8644 20.12C57.4377 20.5467 56.8777 20.76 56.1844 20.76C55.651 20.76 55.1577 20.6533 54.7044 20.44C55.1844 20.04 55.4244 19.44 55.4244 18.64C55.4244 18.2667 55.3444 17.9733 55.1844 17.76C55.0244 17.5467 54.811 17.44 54.5444 17.44C53.9044 17.44 53.371 18.0933 52.9444 19.4C52.5177 20.68 52.3044 22.28 52.3044 24.2C52.3044 25.1867 52.3577 25.9733 52.4644 26.56C52.5977 27.1467 52.811 27.6933 53.1044 28.2L53.4244 28.6L53.1044 29H47.3044L47.0644 28.32L47.6244 28.2C48.051 28.0933 48.331 27.9333 48.4644 27.72C48.5977 27.48 48.6644 27.0267 48.6644 26.36V18.56C48.6644 18.0533 48.491 17.8 48.1444 17.8H46.9044L46.7444 17.36C47.251 16.9067 47.8777 16.5333 48.6244 16.24C49.3977 15.9467 50.1577 15.8 50.9044 15.8C51.251 15.8 51.531 15.88 51.7444 16.04C51.9577 16.2 52.0644 16.4133 52.0644 16.68V19.6H52.1844C52.7444 17.0133 53.891 15.72 55.6244 15.72ZM64.6397 26.72C64.6397 27.52 64.893 27.92 65.3997 27.92C65.9064 27.92 66.3997 27.72 66.8797 27.32L67.1997 27.72C66.213 28.8133 65.053 29.36 63.7197 29.36C62.7597 29.36 62.0664 29.12 61.6397 28.64C61.213 28.1333 60.9997 27.32 60.9997 26.2V18.28C60.9997 17.9067 60.8264 17.72 60.4797 17.72H59.2397L59.1197 17.28C59.653 16.8267 60.3197 16.4533 61.1197 16.16C61.9197 15.8667 62.7197 15.72 63.5197 15.72C63.8397 15.72 64.1064 15.8 64.3197 15.96C64.533 16.12 64.6397 16.3333 64.6397 16.6V26.72ZM60.5997 11.88C60.5997 11.4 60.8664 10.8667 61.3997 10.28C61.933 9.69333 62.4264 9.4 62.8797 9.4C63.3597 9.4 63.8664 9.69333 64.3997 10.28C64.9597 10.8667 65.2397 11.4 65.2397 11.88C65.2397 12.3867 64.9597 12.9333 64.3997 13.52C63.8664 14.08 63.3597 14.36 62.8797 14.36C62.4264 14.36 61.933 14.08 61.3997 13.52C60.8664 12.9333 60.5997 12.3867 60.5997 11.88ZM68.1563 33.48C68.2363 32.8933 68.3429 32.4133 68.4762 32.04C68.6363 31.6667 68.8496 31.3067 69.1163 30.96C69.3829 30.64 69.7163 30.2667 70.1163 29.84C70.9696 28.9067 71.7963 27.9867 72.5963 27.08C73.3963 26.1733 74.1696 25.28 74.9163 24.4C75.6896 23.4933 76.4229 22.6133 77.1163 21.76C77.8363 20.88 78.5296 20.0133 79.1963 19.16C79.1429 18.28 79.0896 17.5333 79.0363 16.92C79.0096 16.28 78.9696 15.6667 78.9162 15.08C78.8896 14.4933 78.8629 13.8267 78.8363 13.08C78.8363 12.3333 78.8229 11.4 78.7963 10.28C78.7696 8.22667 78.7163 6.54667 78.6363 5.24C78.5563 3.90666 78.3563 2.92 78.0363 2.28C77.7163 1.64 77.1829 1.32 76.4363 1.32C75.7696 1.32 75.1696 1.54667 74.6363 2C74.1296 2.45333 73.7029 3.04 73.3563 3.76C73.0096 4.45333 72.7429 5.2 72.5563 6C72.3696 6.8 72.2763 7.54667 72.2763 8.24C72.2763 9.04 72.3829 9.69333 72.5963 10.2C71.5829 10.2 70.8629 9.93333 70.4363 9.4C70.0363 8.84 69.8363 8.18667 69.8363 7.44C69.8363 6.61333 70.0363 5.77333 70.4363 4.92C70.8363 4.06667 71.3829 3.29333 72.0763 2.6C72.7963 1.88 73.6096 1.30667 74.5163 0.879997C75.4229 0.426663 76.3696 0.199996 77.3563 0.199996C78.3963 0.199996 79.2229 0.466662 79.8363 0.999995C80.4763 1.50666 80.9563 2.22666 81.2763 3.16C81.5963 4.09333 81.8096 5.18667 81.9163 6.44C82.0229 7.69333 82.0763 9.06667 82.0763 10.56C82.1029 12.0533 82.1296 13.6133 82.1563 15.24C84.2896 12.28 86.1029 9.52 87.5963 6.96C89.0896 4.4 90.2363 2.12 91.0363 0.119995C91.2496 0.253329 91.4496 0.519997 91.6363 0.919996C91.8496 1.29333 91.9563 1.66667 91.9563 2.04C91.9563 2.57333 91.6896 3.36 91.1563 4.4C90.6496 5.44 89.9429 6.66667 89.0363 8.08C88.1296 9.46667 87.0896 10.96 85.9163 12.56C84.7429 14.16 83.5029 15.7867 82.1963 17.44C82.2496 19.1467 82.3429 20.8133 82.4763 22.44C82.6363 24.04 82.8496 25.4933 83.1163 26.8C83.4096 28.08 83.7829 29.0933 84.2363 29.84C84.7163 30.6133 85.2896 31 85.9563 31C86.7563 31 87.7296 30.2267 88.8763 28.68C90.0229 27.1333 91.3163 25.08 92.7563 22.52L93.2363 22.92C92.2229 24.9733 91.2763 26.72 90.3963 28.16C89.5429 29.5733 88.6763 30.64 87.7963 31.36C86.9163 32.1067 85.9429 32.48 84.8763 32.48C83.7563 32.48 82.8496 32.12 82.1563 31.4C81.4629 30.68 80.9163 29.7467 80.5163 28.6C80.1429 27.4533 79.8629 26.2133 79.6763 24.88C79.5163 23.5467 79.3963 22.28 79.3163 21.08C77.7429 23.0267 76.2096 24.8533 74.7163 26.56C73.2496 28.24 71.9296 29.6933 70.7563 30.92C69.6096 32.1467 68.7429 33 68.1563 33.48Z" fill="#23A485"/>
</svg>
