<svg width="390" height="281" viewBox="0 0 390 281" fill="none" xmlns="http://www.w3.org/2000/svg">
<path fill-rule="evenodd" clip-rule="evenodd" d="M181.785 254.356C125.697 258.175 65.743 212.839 65.743 157.664C65.743 102.487 154.644 126.002 183.482 82.2099C252.579 -22.6435 392.074 146.084 343.035 164.916C244.773 202.622 316.328 245.188 181.785 254.356Z" fill="#E6F6F2"/>
<path fill-rule="evenodd" clip-rule="evenodd" d="M134.089 98.37C114.752 102.937 85.7071 119.535 79.0155 88.797C74.4314 67.7359 128.87 69.5342 140.176 57.8649C165.048 32.1947 203.329 55.4184 186.96 63.6707C154.159 80.198 180.476 87.4122 134.089 98.37Z" fill="#E6F6F2"/>
<path fill-rule="evenodd" clip-rule="evenodd" d="M281.773 132.695C274.481 143.62 201.047 149.611 191.502 136.186C176.749 115.456 219.236 56.2118 219.236 56.2118C218.688 53.3801 218.586 46.5349 220.817 43.8638C224.196 39.8036 219.169 35.9475 222.296 35.0717C226.315 33.9501 229.536 37.7467 236.537 39.6452C240.685 40.7585 240.106 51.6465 236.184 57.7407C234.788 59.9027 232.122 60.1003 232.122 60.1003C232.122 60.1003 215.733 100.429 219.213 108.153C223.531 117.706 244.085 106.707 275.667 102.249C290.771 100.114 285.791 126.673 281.773 132.695Z" fill="#FFC197"/>
<path fill-rule="evenodd" clip-rule="evenodd" d="M241.146 103.179C243.91 105.299 244.563 110.319 245.032 113.459C245.529 116.778 245.378 120.185 244.269 123.385C242.601 128.201 239.142 132.139 237.72 137.042C236.665 140.69 236.917 144.802 238.154 148.382C238.73 150.057 239.603 151.614 240.73 152.979C247.411 161.031 261.167 158.026 269.603 155.195C279.097 152.008 288.475 145.937 293.373 136.934C300.973 122.976 294.079 105.757 280.986 98.016C275.793 94.9817 269.945 93.2449 263.937 92.953C256.802 92.5784 249.477 93.9321 243.312 97.6234L241.146 103.179Z" fill="url(#paint0_linear_77_641)"/>
<path fill-rule="evenodd" clip-rule="evenodd" d="M213.37 58.8169C208.627 67.7679 202.508 87.3404 199.316 96.8928C195.242 109.158 193.62 118.454 199.88 129.437C207.287 142.467 232.01 137.374 244.107 134.027C246.776 133.286 249.412 132.43 252.007 131.459C255.667 130.121 259.222 128.509 262.64 126.638C269.694 122.696 275.584 117.278 280.857 111.203C282.373 109.461 283.731 107.557 285.336 105.9C285.812 105.405 286.535 104.675 287.311 104.765C288.616 104.915 288.916 107.322 289.091 108.258C289.762 112.137 289.709 116.19 289.444 120.103C288.404 135.568 283.378 151.018 269.553 159.465C261.018 164.683 250.384 166.305 240.65 167.734C230.934 169.158 220.706 170.447 210.866 169.55C193.302 167.949 174.768 160.317 165.158 144.74C154.049 126.696 159.162 102.582 168.28 84.8333C170.554 80.4087 173.182 76.1535 176.303 72.2758C182.387 64.7194 190.534 57.841 200.145 55.5337L213.37 58.8169Z" fill="black" fill-opacity="0.1"/>
<path fill-rule="evenodd" clip-rule="evenodd" d="M124.287 37.2553C123.422 35.8932 121.777 34.9154 119.891 34.6399C118.033 34.3412 116.13 34.7694 114.579 35.8356L34.5215 93.4626C32.4462 94.9565 31.8747 97.3826 33.1346 99.366L133.886 257.958C134.764 259.341 136.395 260.298 138.295 260.594C140.153 260.893 142.055 260.465 143.606 259.398L223.664 201.771C225.739 200.277 226.311 197.851 225.05 195.868L124.287 37.2553ZM123.084 37.7428L223.848 196.356C224.828 197.899 224.386 199.794 222.753 200.969L142.696 258.596C141.481 259.427 139.995 259.766 138.539 259.545C137.049 259.333 135.776 258.556 135.089 257.474L34.338 98.8793C33.3451 97.3167 33.7869 95.4217 35.419 94.2464L115.476 36.6194C116.691 35.7884 118.177 35.4495 119.633 35.6713C121.137 35.9026 122.397 36.6601 123.084 37.7418V37.7428Z" fill="#23A485"/>
<path fill-rule="evenodd" clip-rule="evenodd" d="M139.78 35.8083C139.634 35.5742 139.44 35.3734 139.212 35.2186C138.983 35.0638 138.725 34.9585 138.453 34.9095C138.187 34.8589 137.912 34.8618 137.647 34.9181C137.381 34.9744 137.129 35.0829 136.906 35.2375L51.5828 96.6545C51.165 96.9579 50.8791 97.4096 50.7838 97.917C50.6885 98.4244 50.7909 98.9491 51.07 99.3834L150.835 256.425C150.98 256.656 151.172 256.854 151.398 257.006C151.625 257.157 151.881 257.259 152.15 257.305C152.416 257.361 152.692 257.361 152.958 257.304C153.225 257.248 153.477 257.136 153.698 256.977L239.02 195.56C239.439 195.262 239.727 194.814 239.824 194.31C239.922 193.806 239.822 193.283 239.545 192.851L139.78 35.8083Z" fill="#23A485"/>
<path fill-rule="evenodd" clip-rule="evenodd" d="M204.486 159.301C203.066 157.066 200.426 155.48 197.33 155.025C194.234 154.57 191.057 155.284 188.717 156.968L144.138 189.056C138.458 193.145 136.927 199.745 140.38 205.18C141.8 207.415 144.439 208.999 147.535 209.453C150.63 209.908 153.808 209.195 156.136 207.519L200.726 175.422C206.395 171.342 207.939 164.736 204.486 159.301ZM203.525 159.684L203.526 159.686C206.759 164.775 205.313 170.961 200.004 174.783L155.413 206.88C153.336 208.376 150.492 209.017 147.728 208.61C144.975 208.196 142.608 206.79 141.34 204.795C138.107 199.706 139.553 193.52 144.863 189.698L189.453 157.601C191.53 156.105 194.374 155.464 197.126 155.876C199.889 156.283 202.257 157.689 203.524 159.684H203.525Z" fill="white"/>
<path fill-rule="evenodd" clip-rule="evenodd" d="M240.346 145.057C239.45 143.647 238.275 142.434 236.893 141.494C235.511 140.554 233.952 139.907 232.311 139.591C230.67 139.275 228.982 139.297 227.35 139.657C225.718 140.017 224.177 140.706 222.821 141.682L165.774 182.745C162.893 184.818 160.914 187.915 160.242 191.4C159.571 194.885 160.258 198.495 162.163 201.49C163.059 202.9 164.234 204.113 165.615 205.054C166.997 205.994 168.556 206.643 170.197 206.959C171.839 207.275 173.527 207.252 175.159 206.892C176.791 206.532 178.332 205.842 179.688 204.865L236.735 163.801C239.614 161.727 241.591 158.631 242.263 155.147C242.934 151.664 242.249 148.055 240.348 145.059L240.346 145.057Z" fill="#1E7963"/>
<path fill-rule="evenodd" clip-rule="evenodd" d="M174.414 113.492C174.052 112.923 173.577 112.433 173.019 112.053C172.461 111.673 171.831 111.412 171.168 111.284C170.505 111.157 169.822 111.167 169.163 111.313C168.504 111.458 167.882 111.737 167.334 112.133L111.562 152.279C110.406 153.11 109.611 154.353 109.341 155.752C109.07 157.151 109.346 158.6 110.11 159.802C110.471 160.371 110.945 160.86 111.502 161.239C112.059 161.619 112.688 161.88 113.35 162.008C114.011 162.136 114.692 162.128 115.35 161.983C116.009 161.839 116.631 161.562 117.178 161.169L172.961 121.016C174.118 120.184 174.913 118.942 175.183 117.543C175.454 116.145 175.179 114.696 174.415 113.493L174.414 113.492ZM186.281 132.168C185.919 131.598 185.444 131.108 184.886 130.728C184.328 130.349 183.698 130.087 183.035 129.96C182.372 129.832 181.69 129.842 181.03 129.988C180.371 130.133 179.749 130.412 179.201 130.808L123.429 170.955C122.272 171.786 121.478 173.029 121.207 174.428C120.937 175.826 121.213 177.276 121.977 178.478C122.338 179.047 122.812 179.536 123.369 179.915C123.926 180.294 124.555 180.556 125.216 180.684C125.878 180.812 126.559 180.803 127.217 180.659C127.875 180.515 128.497 180.238 129.045 179.845L184.828 139.691C185.985 138.86 186.78 137.617 187.05 136.219C187.32 134.82 187.045 133.371 186.281 132.169V132.168Z" fill="white"/>
<path d="M180.673 189.771L182.231 188.485C182.377 188.633 182.554 188.746 182.749 188.817C182.944 188.889 183.153 188.916 183.359 188.898C183.866 188.819 184.343 188.608 184.742 188.285C185.18 188.005 185.546 187.626 185.809 187.178C185.976 186.828 185.995 186.541 185.862 186.33C185.819 186.263 185.761 186.207 185.692 186.167C185.623 186.127 185.545 186.105 185.465 186.101C185.201 186.108 184.942 186.172 184.705 186.288C184.486 186.38 183.986 186.62 183.207 186.995C182.215 187.49 181.466 187.755 180.956 187.784C180.247 187.834 179.754 187.632 179.464 187.174C179.273 186.848 179.212 186.462 179.293 186.093C179.402 185.603 179.63 185.146 179.955 184.763C180.393 184.242 180.9 183.782 181.46 183.396C182.503 182.645 183.388 182.238 184.114 182.174C184.84 182.111 185.379 182.346 185.739 182.853L184.108 184.103C183.996 183.989 183.859 183.903 183.708 183.85C183.557 183.798 183.396 183.781 183.237 183.801C182.803 183.894 182.398 184.088 182.053 184.369C181.647 184.634 181.304 184.985 181.049 185.398C180.989 185.474 180.953 185.567 180.945 185.664C180.938 185.761 180.959 185.858 181.007 185.943C181.061 186.014 181.134 186.068 181.218 186.098C181.302 186.129 181.393 186.135 181.481 186.115C181.772 186.08 182.367 185.849 183.258 185.395C183.925 185.043 184.619 184.747 185.336 184.512C185.751 184.379 186.193 184.354 186.621 184.439C187.002 184.537 187.329 184.781 187.53 185.119C187.747 185.485 187.817 185.92 187.725 186.335C187.617 186.871 187.37 187.369 187.009 187.779C186.526 188.352 185.968 188.857 185.35 189.28C184.298 190.037 183.392 190.449 182.617 190.515C182.257 190.556 181.892 190.51 181.554 190.381C181.216 190.251 180.913 190.042 180.673 189.771ZM186.981 181.053L186.333 180.032L187.919 178.891L188.567 179.911L186.981 181.053ZM189.994 185.795L187.338 181.617L188.924 180.475L191.579 184.654L189.994 185.795ZM193.234 183.856L195.144 182.712C195.191 182.771 195.252 182.816 195.322 182.843C195.392 182.869 195.468 182.876 195.542 182.863C195.833 182.793 196.103 182.658 196.334 182.468C196.66 182.252 196.948 181.982 197.184 181.67C197.282 181.522 197.329 181.346 197.318 181.169C197.279 180.964 197.195 180.771 197.071 180.603L196.685 179.995C196.49 180.797 196.004 181.498 195.321 181.961C194.511 182.544 193.72 182.763 192.954 182.626C192.654 182.574 192.369 182.458 192.119 182.286C191.868 182.113 191.658 181.888 191.503 181.626C191.288 181.321 191.151 180.968 191.102 180.598C191.053 180.228 191.093 179.851 191.22 179.5C191.493 178.744 192 178.095 192.669 177.648C193.309 177.143 194.123 176.911 194.934 177.002L194.562 176.417L196.046 175.35L198.429 179.101C198.688 179.47 198.868 179.887 198.958 180.328C198.995 180.645 198.952 180.965 198.833 181.261C198.673 181.604 198.457 181.919 198.194 182.192C197.813 182.595 197.391 182.958 196.934 183.273C195.916 184.005 195.116 184.406 194.536 184.463C193.962 184.526 193.551 184.374 193.312 183.999C193.282 183.954 193.256 183.906 193.234 183.856ZM193.094 180.393C193.375 180.835 193.701 181.071 194.084 181.101C194.484 181.12 194.877 180.996 195.193 180.751C195.557 180.503 195.832 180.145 195.976 179.729C196.04 179.523 196.055 179.306 196.021 179.093C195.986 178.881 195.902 178.68 195.776 178.505C195.501 178.07 195.166 177.84 194.782 177.81C194.358 177.797 193.942 177.934 193.608 178.196C193.258 178.433 192.996 178.779 192.864 179.18C192.809 179.387 192.802 179.603 192.842 179.813C192.881 180.022 192.968 180.22 193.094 180.393ZM205.726 174.471L204.14 175.613L202.786 173.482C202.5 173.031 202.279 172.764 202.125 172.678C201.963 172.599 201.779 172.574 201.601 172.607C201.375 172.653 201.162 172.75 200.978 172.891C200.718 173.073 200.499 173.309 200.337 173.582C200.196 173.803 200.133 174.064 200.156 174.325C200.252 174.702 200.418 175.057 200.645 175.372L201.847 177.263L200.26 178.405L197.605 174.225L199.079 173.164L199.47 173.779C199.709 172.911 200.25 172.157 200.997 171.653C201.318 171.417 201.67 171.227 202.043 171.085C202.32 170.981 202.616 170.935 202.912 170.951C203.132 170.977 203.341 171.06 203.518 171.193C203.741 171.388 203.929 171.618 204.076 171.874L205.726 174.471ZM206.883 165.24L208.556 164.036L210.539 167.157C210.731 167.484 210.956 167.792 211.209 168.074C211.334 168.166 211.477 168.231 211.628 168.265C211.78 168.299 211.936 168.302 212.089 168.272C212.98 168.036 213.754 167.482 214.266 166.716C214.412 166.472 214.457 166.181 214.391 165.904C214.247 165.543 214.062 165.199 213.84 164.879L211.814 161.69L213.486 160.487L215.407 163.51C215.846 164.201 216.117 164.727 216.204 165.08C216.299 165.434 216.287 165.807 216.17 166.154C216.015 166.585 215.784 166.985 215.488 167.334C215.052 167.833 214.556 168.274 214.011 168.649C213.218 169.22 212.585 169.588 212.086 169.751C211.68 169.911 211.245 169.982 210.81 169.958C210.493 169.943 210.186 169.837 209.926 169.654C209.496 169.264 209.127 168.81 208.833 168.309L206.883 165.24ZM216.199 160.841L217.683 159.774L218.074 160.389C218.145 160.004 218.299 159.639 218.526 159.32C218.783 158.937 219.109 158.606 219.488 158.343C220.097 157.867 220.853 157.617 221.626 157.635C222.356 157.656 222.935 158.017 223.364 158.691C223.577 159.002 223.715 159.359 223.768 159.733C223.82 160.107 223.785 160.488 223.666 160.846C223.408 161.605 222.91 162.258 222.248 162.709C221.95 162.93 221.618 163.102 221.266 163.219C220.891 163.328 220.502 163.375 220.112 163.36L221.452 165.469L219.865 166.611L216.199 160.841ZM219.05 161.73C219.351 162.203 219.708 162.449 220.118 162.482C220.545 162.509 220.968 162.379 221.307 162.118C221.652 161.884 221.907 161.538 222.029 161.139C222.142 160.763 222.048 160.338 221.753 159.873C221.472 159.43 221.146 159.195 220.757 159.157C220.346 159.138 219.942 159.266 219.617 159.517C219.256 159.759 218.987 160.114 218.852 160.527C218.791 160.73 218.777 160.943 218.812 161.152C218.846 161.36 218.928 161.558 219.05 161.73Z" fill="white"/>
<path d="M134.933 119.198C145.591 109.189 147.504 93.9105 139.205 85.073C130.906 76.2354 115.538 77.185 104.879 87.194C94.2207 97.203 92.308 112.481 100.607 121.319C108.906 130.156 124.274 129.207 134.933 119.198Z" fill="white"/>
<path fill-rule="evenodd" clip-rule="evenodd" d="M117.691 114.195C114.598 114.148 111.81 112.791 110.171 110.211C107.2 105.534 109.139 98.5979 114.512 94.7301C119.885 90.8624 126.679 91.5159 129.65 96.1927C131.571 99.2177 131.414 103.195 129.64 106.664C136.924 104.213 143.442 105.427 145.085 109.952C147.008 115.266 141.471 123.149 132.736 127.54C124.001 131.931 115.322 131.19 113.399 125.877C112.199 122.499 113.977 118.091 117.691 114.195Z" fill="#D9D9D9"/>
<path fill-rule="evenodd" clip-rule="evenodd" d="M275.167 221.707C277.037 186.438 264.64 155.743 265.768 135.581C266.491 122.791 260.954 103.807 281.974 100.732C299.996 98.0957 322.269 102.859 326.659 107.708C335.547 117.492 332.32 170.539 323.873 177.775C306.944 188.583 288.393 210.908 275.167 221.707Z" fill="url(#paint1_linear_77_641)"/>
<path fill-rule="evenodd" clip-rule="evenodd" d="M311.615 127.088C310.152 129.042 309.323 131.46 308.635 133.773C306.819 139.739 306.749 145.692 307.577 151.831C308.388 157.893 309.993 164.173 308.9 170.305C308.071 174.841 305.637 178.591 303.257 182.442C297.279 192.129 293.752 195.31 285.658 202.493C281.055 206.562 272.079 223.292 273.437 229.803C274.372 234.343 281.549 229.935 284.247 228.547C291.566 224.775 298.108 219.472 305.25 215.33C315.442 209.403 326.904 204.284 334.54 194.955C344.68 182.556 345.897 163.806 342 148.773C340.148 141.617 336.886 134.128 330.449 130.023L311.615 127.088Z" fill="black" fill-opacity="0.1"/>
<path fill-rule="evenodd" clip-rule="evenodd" d="M324.577 108.347C336.693 113.462 361.365 183.074 347.182 196.043C333 209.012 239.5 186.165 239.5 186.165C236.821 187.235 230.134 188.62 227.075 186.929C222.47 184.374 225.304 178.669 223.857 175.763C222.001 172.026 208.747 180.434 209.282 173.197C209.614 168.916 231.101 166.521 237.823 169.233C240.226 170.199 240.92 172.783 240.92 172.783C240.92 172.783 307.515 178.951 314.449 174.081C323.023 168.048 301.531 146.297 304.875 121.711C306.933 106.598 317.924 105.533 324.577 108.347Z" fill="#FFC197"/>
<path fill-rule="evenodd" clip-rule="evenodd" d="M305.448 153.473C307.011 150.36 311.82 148.777 314.816 147.727C317.983 146.616 321.358 146.125 324.709 146.613C329.752 147.348 334.269 150.007 339.352 150.484C343.133 150.836 347.124 149.817 350.409 147.93C351.946 147.05 353.312 145.901 354.442 144.538C361.097 136.465 355.565 123.517 351.201 115.761C346.29 107.034 338.568 98.9618 328.806 95.8387C313.669 90.9921 298.05 100.994 292.902 115.307C290.896 120.977 290.287 127.047 291.128 133.003C292.098 140.081 294.802 147.023 299.585 152.386L305.448 153.473Z" fill="url(#paint2_linear_77_641)"/>
<path fill-rule="evenodd" clip-rule="evenodd" d="M284.837 100.256C284.837 100.256 291.943 94.9988 290.286 89.4651C289.862 88.0121 286.653 92.1066 283.761 90.3341C279.811 87.8965 278.859 73.8479 283.32 66.5385C286.089 62.0082 295.823 59.2908 298.997 62.3768C302.172 65.4628 303.423 78.6163 302.33 85.057C300.602 95.331 309.965 101.512 309.965 101.512C309.965 101.512 294.412 113.96 290.497 124.292C289.351 127.326 284.837 100.256 284.837 100.256Z" fill="#FFC197"/>
<path fill-rule="evenodd" clip-rule="evenodd" d="M288.432 90.2214C288.996 89.9164 289.455 89.2938 289.878 88.8284C290.85 87.7863 291.746 86.6754 292.558 85.5043C292.858 85.038 293.158 84.5626 293.493 84.1022C293.564 83.9858 293.758 83.6473 293.934 83.6473C294.11 83.6473 294.005 84.2294 293.987 84.3044C293.869 85.1187 293.68 85.9211 293.422 86.7026C292.453 89.9013 290.46 92.2961 288.326 94.7844L288.432 90.2214Z" fill="black" fill-opacity="0.1"/>
<path fill-rule="evenodd" clip-rule="evenodd" d="M285.489 72.4744C284.167 72.3951 282.932 71.6227 281.909 70.8327C277.977 67.8031 278.242 62.5322 281.662 59.2098C283.726 57.2154 287.958 55.8841 289.933 58.6916C290.568 57.7922 291.89 57.4111 292.895 57.1766C293.711 56.96 294.559 56.886 295.4 56.9579C301.148 57.7322 299.809 64.9568 304.181 67.267C305.61 66.3482 307.179 69.3513 307.461 70.2665C308.431 73.4496 308.008 78.8897 304.34 80.1594C304.022 81.0147 303.212 81.616 302.489 82.1095C300.496 83.4798 297.286 84.4602 295.065 83.0442C294.797 82.8714 294.554 82.6638 294.342 82.427C292.755 80.6617 294.43 78.6498 294.959 76.8158C295.241 75.8493 295.47 74.6396 294.624 73.8797C293.936 73.2837 293.248 73.6222 292.702 74.1977C291.873 75.0741 291.414 76.4549 290.092 76.7018C288.187 77.0545 286.336 75.224 285.736 73.9401C285.612 73.6682 285.489 72.4744 285.489 72.4744Z" fill="black"/>
<path fill-rule="evenodd" clip-rule="evenodd" d="M273.33 58.4611C273.331 57.8412 273.158 57.2336 272.83 56.7072C272.503 56.1808 272.034 55.7569 271.478 55.4835L200.65 20.6502C200.143 20.403 199.583 20.2885 199.02 20.3175C198.457 20.3464 197.911 20.5177 197.433 20.8154C196.955 21.1132 196.56 21.5275 196.286 22.0196C196.011 22.5117 195.867 23.0654 195.865 23.6287V35.3504C195.866 35.9698 196.04 36.5766 196.368 37.1026C196.695 37.6286 197.162 38.053 197.717 38.3281L268.559 73.1679C269.065 73.4162 269.626 73.5312 270.189 73.5021C270.752 73.4731 271.298 73.3009 271.775 73.0019C272.253 72.7028 272.646 72.2869 272.918 71.7934C273.19 71.2998 273.332 70.7451 273.33 70.1815L273.33 58.4611Z" fill="#B3E1D6"/>
<path fill-rule="evenodd" clip-rule="evenodd" d="M205.856 38.0076L204.349 36.3023L206.31 34.3098L202.844 31.6868L203.307 30.2098L206.774 32.8324L206.59 29.2165L208.383 30.008L208.567 33.6239L211.92 34.012L212.558 35.9753L209.205 35.5869L211.462 39.4424L210.063 39.8648L207.817 36.013L205.856 38.0076ZM218.332 44.1359L216.825 42.4304L218.786 40.438L215.319 37.8155L215.783 36.3386L219.25 38.961L219.066 35.3453L220.859 36.1368L221.042 39.7525L224.396 40.1408L225.034 42.1038L221.68 41.7157L223.938 45.5711L222.539 45.9934L220.292 42.1417L218.332 44.1359ZM231.7 50.0981L230.193 48.3928L232.154 46.4003L228.687 43.7779L229.151 42.3009L232.617 44.9236L232.434 41.3077L234.227 42.0991L234.41 45.7151L237.764 46.1032L238.402 48.0664L235.048 47.6781L237.306 51.5335L235.907 51.956L233.66 48.1041L231.7 50.0981ZM244.753 57.1304L243.246 55.425L245.207 53.4325L241.74 50.8098L242.204 49.3331L245.671 51.9555L245.487 48.3398L247.28 49.1313L247.463 52.747L250.817 53.1353L251.455 55.0983L248.101 54.7102L250.359 58.5654L248.96 58.9879L246.714 55.1363L244.753 57.1304ZM258.528 63.9046L257.021 62.1994L258.982 60.2069L255.515 57.5845L255.978 56.1075L259.445 58.7301L259.262 55.1142L261.055 55.9057L261.238 59.5216L264.591 59.9097L265.23 61.8729L261.876 61.4846L264.134 65.3401L262.735 65.7625L260.488 61.9107L258.528 63.9046Z" fill="#23A485"/>
<path fill-rule="evenodd" clip-rule="evenodd" d="M228.801 58.2818C229.903 57.0312 236.522 54.0184 238.259 53.7765C241.029 53.3695 243.637 55.1844 242.677 57.8189C242.296 58.8325 233.912 61.1614 231.606 61.244C230.662 61.2739 228.361 58.7774 228.801 58.2818Z" fill="#FFC197"/>
<defs>
<linearGradient id="paint0_linear_77_641" x1="273.715" y1="99.7831" x2="250.626" y2="162.818" gradientUnits="userSpaceOnUse">
<stop stop-color="#D6EED0"/>
<stop offset="0.49" stop-color="#23A485"/>
<stop offset="1" stop-color="#0F6651"/>
</linearGradient>
<linearGradient id="paint1_linear_77_641" x1="306.505" y1="112.828" x2="247.138" y2="209.789" gradientUnits="userSpaceOnUse">
<stop stop-color="#D6EED0"/>
<stop offset="0.49" stop-color="#23A485"/>
<stop offset="1" stop-color="#0F6651"/>
</linearGradient>
<linearGradient id="paint2_linear_77_641" x1="331.914" y1="100.816" x2="314.455" y2="160.151" gradientUnits="userSpaceOnUse">
<stop stop-color="#D6EED0"/>
<stop offset="0.49" stop-color="#23A485"/>
<stop offset="1" stop-color="#0F6651"/>
</linearGradient>
</defs>
</svg>
