<svg width="222" height="81" viewBox="0 0 222 81" fill="none" xmlns="http://www.w3.org/2000/svg">
<path d="M42.1665 27.28C41.1425 28.752 40.4065 30.256 39.9585 31.792C39.5745 33.328 39.3825 35.312 39.3825 37.744V64.528C39.3825 65.872 39.6705 66.992 40.2465 67.888L41.1105 69.04L40.2465 70H30.2625L8.9505 33.232V57.424C8.9505 59.984 9.1425 62.032 9.5265 63.568C9.9745 65.04 10.7105 66.48 11.7345 67.888L12.5985 69.04L11.7345 70H1.1745L0.502502 68.272C2.1665 67.824 3.3185 67.408 3.9585 67.024C4.6625 66.64 5.1425 66.096 5.3985 65.392C5.6545 64.688 5.7825 63.568 5.7825 62.032V36.688C5.7825 33.872 5.5265 31.824 5.0145 30.544C4.5025 29.264 3.3825 27.888 1.6545 26.416L2.4225 25.168H14.9025L36.3105 62.224V33.136C36.3105 31.216 35.8945 29.872 35.0625 29.104C34.2945 28.336 32.6625 27.6 30.1665 26.896L30.7425 25.168H42.1665L43.0305 26.224L42.1665 27.28ZM70.353 61.264C69.457 64.08 67.889 66.384 65.649 68.176C63.473 69.968 61.137 70.864 58.641 70.864C55.825 70.864 53.745 69.968 52.401 68.176C51.057 66.384 50.385 63.632 50.385 59.92V44.272C50.385 43.376 49.969 42.928 49.137 42.928H46.161L45.873 41.872C47.153 40.784 48.753 39.888 50.673 39.184C52.593 38.48 54.481 38.128 56.337 38.128C57.169 38.128 57.809 38.32 58.257 38.704C58.769 39.088 59.025 39.6 59.025 40.24V59.44C59.025 61.616 59.345 63.312 59.985 64.528C60.625 65.68 61.521 66.256 62.673 66.256C65.041 66.256 66.929 64.816 68.337 61.936C69.809 58.992 70.545 55.184 70.545 50.512C70.545 48.016 70.353 46.096 69.969 44.752C69.649 43.344 69.041 42.128 68.145 41.104L67.281 40.048L68.049 39.184L79.089 38.32V64.528C79.089 66.448 79.665 67.408 80.817 67.408C82.033 67.408 83.217 66.928 84.369 65.968L85.137 66.928C82.897 69.552 80.113 70.864 76.785 70.864C74.353 70.864 72.657 70.16 71.697 68.752C70.801 67.344 70.353 64.848 70.353 61.264ZM98.6453 70.864C96.0213 70.864 94.1333 70.288 92.9813 69.136C91.8293 67.92 91.2533 65.968 91.2533 63.28V42.928H86.4533C86.4533 41.84 86.5173 41.136 86.6453 40.816C86.7733 40.496 87.1573 40.24 87.7973 40.048C89.9093 39.472 91.5733 38.576 92.7893 37.36C94.0053 36.144 94.9973 34.384 95.7653 32.08C95.9573 31.376 96.2773 30.96 96.7253 30.832C97.1733 30.64 98.2613 30.544 99.9893 30.544V39.184H107.861C107.861 40.016 107.733 40.784 107.477 41.488C107.221 42.128 106.869 42.608 106.421 42.928H99.9893V64.528C99.9893 66.448 100.789 67.408 102.389 67.408C103.093 67.408 103.861 67.184 104.693 66.736C105.589 66.288 106.389 65.68 107.093 64.912L107.861 65.872C105.109 69.2 102.037 70.864 98.6453 70.864ZM131.699 38.128C133.747 38.128 135.411 38.736 136.691 39.952C137.971 41.104 138.611 42.608 138.611 44.464C138.611 46.192 138.099 47.6 137.075 48.688C136.051 49.712 134.707 50.224 133.043 50.224C131.763 50.224 130.579 49.968 129.491 49.456C130.643 48.496 131.219 47.056 131.219 45.136C131.219 44.24 131.027 43.536 130.643 43.024C130.259 42.512 129.747 42.256 129.107 42.256C127.571 42.256 126.291 43.824 125.267 46.96C124.243 50.032 123.731 53.872 123.731 58.48C123.731 60.848 123.859 62.736 124.115 64.144C124.435 65.552 124.947 66.864 125.651 68.08L126.419 69.04L125.651 70H111.73L111.155 68.368L112.499 68.08C113.523 67.824 114.195 67.44 114.515 66.928C114.835 66.352 114.995 65.264 114.995 63.664V44.944C114.995 43.728 114.579 43.12 113.747 43.12H110.771L110.387 42.064C111.603 40.976 113.107 40.08 114.898 39.376C116.755 38.672 118.579 38.32 120.371 38.32C121.203 38.32 121.875 38.512 122.387 38.896C122.899 39.28 123.155 39.792 123.155 40.432V47.44H123.443C124.787 41.232 127.539 38.128 131.699 38.128ZM153.335 64.528C153.335 66.448 153.943 67.408 155.159 67.408C156.375 67.408 157.559 66.928 158.711 65.968L159.479 66.928C157.111 69.552 154.327 70.864 151.127 70.864C148.823 70.864 147.159 70.288 146.135 69.136C145.111 67.92 144.599 65.968 144.599 63.28V44.272C144.599 43.376 144.183 42.928 143.351 42.928H140.375L140.087 41.872C141.367 40.784 142.967 39.888 144.887 39.184C146.807 38.48 148.727 38.128 150.647 38.128C151.415 38.128 152.055 38.32 152.567 38.704C153.079 39.088 153.335 39.6 153.335 40.24V64.528ZM143.639 28.912C143.639 27.76 144.279 26.48 145.559 25.072C146.839 23.664 148.023 22.96 149.111 22.96C150.263 22.96 151.479 23.664 152.759 25.072C154.103 26.48 154.775 27.76 154.775 28.912C154.775 30.128 154.103 31.44 152.759 32.848C151.479 34.192 150.263 34.864 149.111 34.864C148.023 34.864 146.839 34.192 145.559 32.848C144.279 31.44 143.639 30.128 143.639 28.912ZM161.775 80.752C161.967 79.344 162.223 78.192 162.543 77.296C162.927 76.4 163.439 75.536 164.079 74.704C164.719 73.936 165.519 73.04 166.479 72.016C168.527 69.776 170.511 67.568 172.431 65.392C174.351 63.216 176.207 61.072 177.999 58.96C179.855 56.784 181.615 54.672 183.279 52.624C185.007 50.512 186.671 48.432 188.271 46.384C188.143 44.272 188.015 42.48 187.887 41.008C187.823 39.472 187.727 38 187.599 36.592C187.535 35.184 187.471 33.584 187.407 31.792C187.407 30 187.375 27.76 187.311 25.072C187.247 20.144 187.119 16.112 186.927 12.976C186.735 9.77599 186.255 7.40799 185.487 5.87199C184.719 4.33599 183.439 3.56799 181.647 3.56799C180.047 3.56799 178.607 4.11199 177.327 5.19999C176.111 6.28799 175.087 7.69599 174.255 9.42399C173.423 11.088 172.783 12.88 172.335 14.8C171.887 16.72 171.663 18.512 171.663 20.176C171.663 22.096 171.919 23.664 172.431 24.88C169.999 24.88 168.271 24.24 167.247 22.96C166.287 21.616 165.807 20.048 165.807 18.256C165.807 16.272 166.287 14.256 167.247 12.208C168.207 10.16 169.519 8.30399 171.183 6.63999C172.911 4.91199 174.863 3.53599 177.039 2.51199C179.215 1.42399 181.487 0.879991 183.855 0.879991C186.351 0.879991 188.335 1.51999 189.807 2.79999C191.343 4.01599 192.495 5.74399 193.263 7.98399C194.031 10.224 194.543 12.848 194.799 15.856C195.055 18.864 195.183 22.16 195.183 25.744C195.247 29.328 195.311 33.072 195.375 36.976C200.495 29.872 204.847 23.248 208.431 17.104C212.015 10.96 214.767 5.48799 216.687 0.687988C217.199 1.00799 217.679 1.64799 218.127 2.60799C218.639 3.50399 218.895 4.39999 218.895 5.29599C218.895 6.57599 218.255 8.46399 216.975 10.96C215.759 13.456 214.063 16.4 211.887 19.792C209.711 23.12 207.215 26.704 204.399 30.544C201.583 34.384 198.607 38.288 195.471 42.256C195.599 46.352 195.823 50.352 196.143 54.256C196.527 58.096 197.039 61.584 197.679 64.72C198.383 67.792 199.279 70.224 200.367 72.016C201.519 73.872 202.895 74.8 204.495 74.8C206.415 74.8 208.751 72.944 211.503 69.232C214.255 65.52 217.359 60.592 220.815 54.448L221.967 55.408C219.535 60.336 217.263 64.528 215.151 67.984C213.103 71.376 211.023 73.936 208.911 75.664C206.799 77.456 204.463 78.352 201.903 78.352C199.215 78.352 197.039 77.488 195.375 75.76C193.711 74.032 192.399 71.792 191.439 69.04C190.543 66.288 189.871 63.312 189.423 60.112C189.039 56.912 188.751 53.872 188.559 50.992C184.783 55.664 181.103 60.048 177.519 64.144C173.999 68.176 170.831 71.664 168.015 74.608C165.263 77.552 163.183 79.6 161.775 80.752Z" fill="white"/>
</svg>
