<svg width="248" height="165" viewBox="0 0 248 165" fill="none" xmlns="http://www.w3.org/2000/svg">
<path d="M222.75 77.1444V69.2272C222.75 67.7175 222.149 66.2696 221.079 65.202C220.008 64.1345 218.557 63.5348 217.043 63.5348H196.899C196.15 63.5348 195.407 63.3875 194.715 63.1014C194.023 62.8154 193.393 62.3961 192.863 61.8675C192.334 61.3389 191.913 60.7114 191.626 60.0207C191.34 59.3301 191.192 58.5899 191.192 57.8423V49.9251C191.192 48.4154 191.793 46.9675 192.863 45.9C193.934 44.8324 195.385 44.2327 196.899 44.2327H197.535C198.284 44.2327 199.027 44.0854 199.719 43.7994C200.411 43.5133 201.041 43.094 201.571 42.5654C202.1 42.0368 202.521 41.4093 202.808 40.7186C203.094 40.028 203.242 39.2878 203.242 38.5402V30.6231C203.242 29.1133 202.641 27.6654 201.571 26.5979C200.5 25.5304 199.049 24.9306 197.535 24.9306H27.8394C27.0899 24.9306 26.3478 25.0779 25.6554 25.3639C24.963 25.65 24.3338 26.0693 23.8039 26.5979C23.2739 27.1265 22.8535 27.754 22.5667 28.4447C22.2799 29.1353 22.1323 29.8755 22.1323 30.6231V38.5402C22.1323 39.2878 22.2799 40.028 22.5667 40.7186C22.8535 41.4093 23.2739 42.0368 23.8039 42.5654C24.3338 43.094 24.9629 43.5133 25.6554 43.7994C26.3478 44.0854 27.0899 44.2327 27.8394 44.2327C28.5888 44.2327 29.331 44.3799 30.0234 44.666C30.7158 44.9521 31.3449 45.3714 31.8749 45.9C32.4048 46.4286 32.8252 47.0561 33.112 47.7467C33.3988 48.4374 33.5465 49.1776 33.5465 49.9251V57.8423C33.5465 58.5899 33.3988 59.3301 33.112 60.0207C32.8252 60.7114 32.4048 61.3389 31.8749 61.8675C31.3449 62.3961 30.7158 62.8154 30.0234 63.1014C29.331 63.3875 28.5888 63.5348 27.8394 63.5348H5.76959C5.02012 63.5348 4.27799 63.682 3.58558 63.9681C2.89316 64.2541 2.26402 64.6734 1.73407 65.202C1.20411 65.7306 0.783733 66.3582 0.496925 67.0488C0.210117 67.7394 0.0625 68.4797 0.0625 69.2272V77.1444C0.0624971 77.8919 0.210112 78.6322 0.496919 79.3228C0.783726 80.0134 1.20411 80.641 1.73406 81.1696C2.26401 81.6982 2.89316 82.1175 3.58557 82.4035C4.27799 82.6896 5.02012 82.8369 5.76959 82.8369H14.4294C15.943 82.8369 17.3947 83.4366 18.4649 84.5041C19.5352 85.5717 20.1365 87.0196 20.1365 88.5293V96.4465C20.1365 97.9562 19.5352 99.4041 18.465 100.472C17.3947 101.539 15.943 102.139 14.4294 102.139H14.4085C12.8949 102.139 11.4433 102.739 10.373 103.806C9.30269 104.874 8.70141 106.322 8.70141 107.831V115.749C8.70141 116.496 8.84903 117.236 9.13584 117.927C9.42264 118.618 9.84303 119.245 10.373 119.774C10.9029 120.302 11.5321 120.722 12.2245 121.008C12.9169 121.294 13.659 121.441 14.4085 121.441H15.6614C17.175 121.441 18.6266 122.041 19.6969 123.108C20.7672 124.176 21.3685 125.624 21.3685 127.133V135.051C21.2534 141.394 16.9161 140.743 16.9161 140.743C16.1666 140.743 15.4245 140.89 14.7321 141.176C14.0397 141.462 13.4105 141.882 12.8806 142.41C12.3506 142.939 11.9302 143.566 11.6434 144.257C11.3566 144.948 11.209 145.688 11.209 146.436V154.353C11.209 155.1 11.3566 155.84 11.6434 156.531C11.9302 157.222 12.3506 157.849 12.8806 158.378C13.4105 158.906 14.0397 159.326 14.7321 159.612C15.4245 159.898 16.1666 160.045 16.9161 160.045H235.506C237.02 160.045 238.471 159.445 239.542 158.378C240.612 157.31 241.213 155.862 241.213 154.353V146.436C241.213 144.926 240.612 143.478 239.542 142.41C238.471 141.343 237.02 140.743 235.506 140.743H230.558C229.044 140.743 227.593 140.143 226.522 139.076C225.452 138.008 224.851 136.56 224.851 135.051V127.133C224.851 125.624 225.452 124.176 226.522 123.108C227.593 122.041 229.044 121.441 230.558 121.441H242.225C242.975 121.441 243.717 121.294 244.409 121.008C245.102 120.722 245.731 120.302 246.261 119.774C246.791 119.245 247.211 118.618 247.498 117.927C247.785 117.236 247.933 116.496 247.933 115.749V107.831C247.933 107.084 247.785 106.344 247.498 105.653C247.211 104.962 246.791 104.335 246.261 103.806C245.731 103.278 245.102 102.858 244.409 102.572C243.717 102.286 242.975 102.139 242.225 102.139H216.869C215.355 102.139 213.904 101.539 212.834 100.472C211.763 99.4041 211.162 97.9562 211.162 96.4465V88.5293C211.162 87.0196 211.763 85.5717 212.834 84.5041C213.904 83.4366 215.355 82.8369 216.869 82.8369H217.043C217.792 82.8369 218.535 82.6896 219.227 82.4035C219.919 82.1175 220.549 81.6982 221.079 81.1696C221.608 80.641 222.029 80.0134 222.316 79.3228C222.602 78.6322 222.75 77.8919 222.75 77.1444Z" fill="#E6F6F2"/>
<path d="M94.9798 129.084C130.476 129.084 159.251 100.383 159.251 64.978C159.251 29.5731 130.476 0.87175 94.9798 0.87175C59.4839 0.87175 30.7087 29.5731 30.7087 64.978C30.7087 100.383 59.4839 129.084 94.9798 129.084Z" fill="white"/>
<path d="M72.0988 127.017C71.6422 127.01 71.1197 126.497 69.816 122.545C67.1889 114.581 65.8754 110.599 66.9949 105.911C67.4542 103.988 68.3502 102.15 70.1423 98.4735C71.5951 95.4933 72.256 94.6401 73.2737 92.2047C74.874 88.3748 74.668 87.0658 75.4806 84.9883C78.3402 77.6777 88.5744 74.2424 89.4375 75.3593C89.8028 75.832 88.3376 76.9237 86.0813 80.9239C84.6755 83.3488 83.5404 85.9201 82.6965 88.5918C81.0342 94.1999 82.9501 94.8482 81.3602 100.729C80.5754 103.631 80.0407 103.725 78.4378 108.87C77.6508 111.396 77.5982 111.957 76.7121 115.158C74.5997 122.79 73.4246 127.036 72.0988 127.017Z" fill="#1A735D"/>
<path d="M63.7971 117.088C62.9567 117.736 60.8508 114.921 53.5764 110.405C48.6253 107.331 42.422 104.178 41.9468 103.937C37.1105 101.488 35.9565 101.197 34.275 99.3924C32.1482 97.11 32.6821 96.1669 29.6904 91.8507C27.3735 88.5082 26.6486 88.4898 24.8555 85.4744C23.3253 82.9009 21.5535 79.0464 22.3732 78.4286C22.7579 78.1387 23.5945 78.6507 25.1691 79.635C27.5273 81.1091 28.0923 81.9546 29.5765 82.9669C32.1888 84.7486 32.7582 83.7112 35.4023 85.3829C36.4669 86.056 37.654 87.3328 40.0282 89.8864C42.3705 92.4057 42.4445 92.7209 43.7232 93.9099C45.2223 95.2617 46.8549 96.4585 48.5961 97.4818C51.5226 99.3468 54.3137 101.415 56.9486 103.672C62.4072 108.598 65.0305 116.136 63.7971 117.088Z" fill="#1A735D"/>
<path d="M24.0525 80.8706C26.8188 83.6476 29.554 86.4132 32.3859 89.0768C33.0882 89.7477 33.8045 90.4041 34.5179 91.0623C35.2287 91.7233 35.9465 92.3766 36.6713 93.0222L41.0343 96.8788C43.9087 99.5072 46.9309 101.97 50.0862 104.256C51.6787 105.385 53.3241 106.436 54.9606 107.518C56.6282 108.582 58.2245 109.753 59.7393 111.024C61.2572 112.342 62.5967 113.851 63.7241 115.514C64.851 117.176 65.7993 118.951 66.5534 120.811C68.0914 124.526 68.9251 128.443 69.5393 132.312C69.8401 134.252 70.0985 136.191 70.3317 138.13C70.4481 139.096 70.5677 140.074 70.6683 141.052C70.7685 142.03 70.8423 143.01 70.9148 143.989C71.175 147.909 69.9865 147.986 69.435 144.143C69.1602 142.219 68.851 140.318 68.5201 138.393L67.5482 132.638C66.8834 128.821 66.2202 125.022 64.8906 121.46C64.2312 119.678 63.412 117.958 62.4428 116.323C61.4899 114.675 60.3431 113.148 59.0267 111.772C57.6667 110.398 56.1836 109.15 54.596 108.044C53.0117 106.911 51.3766 105.835 49.7426 104.758C46.4742 102.607 43.1318 100.511 40.0295 98.0852C38.4798 96.8736 36.9766 95.6015 35.5431 94.2545C34.8237 93.584 34.1122 92.9054 33.4086 92.2189C32.7123 91.5247 32.0258 90.8211 31.3493 90.1082C28.6343 87.2668 26.1459 84.2184 23.9067 80.9906L24.0525 80.8706Z" fill="#23A485"/>
<path d="M58.5344 124.234C58.2794 124.867 55.9432 123.676 52.303 124.747C49.6475 125.529 49.4406 126.59 45.8652 128.301C43.2932 129.532 41.4971 130.391 39.1659 130.4C36.1873 130.411 35.4562 129.021 31.0204 127.801C28.7494 127.193 26.4144 126.854 24.0638 126.792C16.677 126.435 12.7703 128.781 12.0986 127.654C11.3674 126.427 15.1309 122.193 19.7085 119.311C29.3345 113.25 39.8505 114.874 41.3916 115.134C51.3614 116.823 59.0187 123.032 58.5344 124.234Z" fill="#23A485"/>
<path d="M14.4297 125.802C15.5735 124.752 16.882 123.896 18.3031 123.267C18.6584 123.109 19.0209 122.965 19.3818 122.813C19.7495 122.682 20.1223 122.564 20.4941 122.44C20.87 122.33 21.2508 122.237 21.6306 122.135C22.0104 122.032 22.4015 121.986 22.7877 121.911C24.3454 121.654 25.9295 121.597 27.5017 121.741C27.8951 121.768 28.2869 121.815 28.6752 121.884L29.2596 121.975L29.5505 122.022L29.8156 122.069C30.5178 122.207 31.2438 122.303 31.974 122.378C34.9653 122.674 37.9765 122.714 40.9747 122.499C43.9985 122.283 46.9954 121.837 50.0499 121.551C51.6031 121.388 53.1687 121.379 54.7237 121.523C55.548 121.615 56.3562 121.816 57.1268 122.122C57.9835 122.454 58.7304 123.017 59.2836 123.749C60.2499 124.987 61.0961 126.314 61.8108 127.712C62.5029 129.155 62.9873 130.69 63.2495 132.268L63.4193 133.432C63.4794 133.82 63.4963 134.207 63.534 134.594C63.6152 135.369 63.629 136.137 63.6562 136.907C63.6764 137.677 63.6607 138.441 63.6645 139.207L63.5765 141.495C63.402 144.537 62.2127 144.491 62.0887 141.485C62.019 138.518 61.7435 135.559 61.2644 132.629C61.0063 131.226 60.5898 129.856 60.023 128.546C59.4005 127.228 58.6646 125.966 57.8235 124.774C57.2135 123.813 55.8649 123.311 54.4816 123.016C53.0302 122.748 51.5588 122.603 50.083 122.582C47.0575 122.552 44.0333 122.726 41.0315 123.105L36.496 123.668C34.964 123.867 33.4199 123.96 31.8749 123.943C31.484 123.923 31.0935 123.917 30.6998 123.876C30.5033 123.858 30.3061 123.845 30.1099 123.822L29.519 123.731L28.4139 123.56C28.0539 123.513 27.6987 123.418 27.3354 123.401L26.2495 123.301C25.8869 123.277 25.5233 123.286 25.1597 123.276C24.978 123.277 24.7956 123.259 24.6139 123.266L24.0685 123.289C23.705 123.307 23.3388 123.307 22.9777 123.359C20.0177 123.626 17.1465 124.508 14.5487 125.948L14.4297 125.802Z" fill="#1A735D"/>
<path d="M64.4526 86.0084C63.2005 86.0998 61.6448 81.5259 61.0489 77.7814C60.3501 73.3905 61.308 72.2582 61.2199 65.1615C61.2097 62.344 61.013 59.5303 60.6311 56.7388C59.8898 51.4867 58.9279 50.0973 58.1931 46.4211C56.4224 37.5637 58.6689 28.9352 59.8365 28.9124C60.4161 28.9012 60.541 31.0142 61.8692 34.5497C63.139 37.93 64.2454 38.8142 67.5937 44.4442C69.9607 48.4243 71.1443 50.4143 71.4818 51.5089C72.7325 55.5652 72.0636 59.0588 71.0796 63.892C69.9504 69.439 69.0235 69.4934 67.1566 76.695C65.5342 82.953 65.4502 85.9355 64.4526 86.0084Z" fill="#1A735D"/>
<path d="M59.8717 33.0975C61.4441 38.0275 62.9442 42.9742 64.7092 47.7931C64.9273 48.396 65.1546 48.9938 65.3912 49.5867L65.5663 50.0394L65.7435 50.5368C65.8527 50.8684 65.9447 51.2053 66.0193 51.5463C66.279 52.8789 66.383 54.2371 66.3294 55.5936C66.2871 56.9097 66.1767 58.2227 65.9988 59.5275C65.8452 60.8232 65.6238 62.1009 65.425 63.3766C65.0028 65.9242 64.568 68.4542 64.2865 71.0055C63.9847 73.5551 63.912 76.1264 64.0693 78.6888C64.1535 79.9691 64.3104 81.2436 64.5393 82.5062C64.6585 83.1322 64.7604 83.7796 64.8676 84.4206L65.0287 85.3834L65.1115 85.8647L65.1671 86.3491C65.4915 88.9315 65.6768 91.5294 65.7222 94.1317C65.7408 96.7303 65.7196 99.3356 65.5612 101.924C65.4244 104.514 65.2059 107.095 65.014 109.666C64.8225 112.238 64.6427 114.802 64.5875 117.353C64.5441 118.631 64.5681 119.898 64.5775 121.166L64.6855 123.054C64.7135 123.685 64.8308 124.297 64.8851 124.921C65.5697 129.978 66.6028 135.057 67.3776 140.181C67.7702 142.745 64.4479 135.528 62.8887 125.193C62.55 122.572 62.4582 119.926 62.6147 117.288C62.6559 115.978 62.7736 114.683 62.863 113.383C62.9824 112.09 63.0971 110.795 63.2352 109.509L64.0495 101.806C64.3228 99.2439 64.548 96.6852 64.688 94.1174L64.7353 92.1922C64.7406 91.8714 64.757 91.5497 64.7532 91.2291L64.7362 90.2671C64.7179 89.626 64.7285 88.9817 64.6868 88.3416L64.5298 86.4231C64.4972 85.7802 64.3686 85.1511 64.2792 84.5159C64.1801 83.8812 64.0886 83.251 63.973 82.6062C63.8569 81.9657 63.769 81.3213 63.6701 80.6779C63.5946 80.032 63.5065 79.3867 63.4586 78.7376C63.0408 73.5453 63.178 68.3233 63.8677 63.1599C64.1638 60.5918 64.5364 58.0443 64.6572 55.5384C64.7289 54.3113 64.6585 53.0801 64.4476 51.869C64.3855 51.5772 64.3241 51.2853 64.2408 51.0028L64.1089 50.5816L63.9515 50.1238C63.7323 49.507 63.5234 48.8885 63.3247 48.268C62.916 47.03 62.5612 45.7787 62.2162 44.5269C61.8665 43.2764 61.5513 42.0178 61.2501 40.7567C60.6481 38.2345 60.1116 35.6992 59.6877 33.1407L59.8717 33.0975Z" fill="#23A485"/>
<path d="M85.913 124.835C85.6578 123.134 90.3723 120.291 94.8831 120.048C95.3674 120.022 95.4698 120.046 101.668 120.84C106.753 121.492 107.319 121.557 107.985 121.627C114.222 122.278 113.517 121.687 115.476 122.195C119.368 123.205 119.306 124.8 124.788 126.762C126.892 127.515 128.027 127.684 128.049 128.209C128.091 129.185 124.227 130.079 119.573 131.133C113.825 132.434 110.95 133.085 108.77 132.857C104.635 132.425 104.47 130.803 98.2836 128.508C90.5695 125.647 86.1527 126.434 85.913 124.835Z" fill="#1A735D"/>
<path d="M81.821 143.542C81.6569 142.827 81.4969 142.109 81.3714 141.385C81.2419 140.661 81.1189 139.935 81.0191 139.204C80.9266 138.472 80.8493 137.737 80.7873 137C80.6513 135.514 80.6574 134.019 80.8056 132.535C80.9468 131.02 81.3215 129.535 81.9166 128.134C82.2267 127.422 82.6421 126.76 83.1491 126.171C83.4076 125.876 83.6965 125.609 84.0111 125.374C84.3309 125.148 84.6749 124.957 85.0367 124.806C85.394 124.669 85.7623 124.564 86.1375 124.49C86.4945 124.412 86.8515 124.334 87.2066 124.247L89.3516 123.776C90.7933 123.45 92.2507 123.197 93.7181 123.019C95.2217 122.846 96.7414 122.869 98.2392 123.086C99.7247 123.329 101.184 123.712 102.597 124.23L103.642 124.606C103.991 124.734 104.31 124.834 104.645 124.951C104.971 125.072 105.314 125.164 105.653 125.264C105.993 125.361 106.329 125.466 106.677 125.546C108.051 125.907 109.455 126.201 110.858 126.494C113.672 127.057 116.521 127.504 119.385 127.84C120.818 127.983 122.256 128.133 123.696 128.19C125.14 128.273 126.588 128.249 128.028 128.117L128.071 128.3C126.66 128.752 125.2 129.038 123.722 129.153L122.615 129.249L121.508 129.296C120.769 129.33 120.031 129.323 119.292 129.321C117.817 129.288 116.34 129.217 114.872 129.065C113.4 128.938 111.938 128.72 110.479 128.47C109.016 128.206 107.569 127.863 106.144 127.442C105.785 127.345 105.429 127.219 105.073 127.102C104.717 126.983 104.361 126.871 104.008 126.726C103.659 126.589 103.291 126.448 102.961 126.31L101.969 125.897C99.3183 124.818 96.6361 124.056 93.7695 124.049C92.3286 124.045 90.89 124.164 89.4695 124.405C88.7513 124.503 88.043 124.668 87.3307 124.807C86.9753 124.882 86.6216 124.966 86.268 125.049C85.9285 125.12 85.5972 125.225 85.2794 125.363C84.6698 125.658 84.145 126.102 83.7539 126.654C83.3681 127.217 83.0773 127.84 82.8931 128.498C82.545 129.85 82.3708 131.241 82.3746 132.637C82.3417 134.045 82.3957 135.463 82.4566 136.889C82.4931 137.601 82.5456 138.314 82.6142 139.028C82.6743 139.743 82.7389 140.458 82.8204 141.173C83.1267 144.036 81.9812 144.258 81.821 143.542Z" fill="#23A485"/>
<path d="M80.6636 117.549C79.8279 117.096 81.6888 111.337 84.5677 106.148C86.4841 102.694 88.3761 99.2834 92.2016 96.1998C96.9338 92.3854 101.963 91.216 105.874 90.3069C112.179 88.8408 112.997 90.0726 117.383 88.3584C123.759 85.8666 126.205 81.633 127.306 82.4148C128.45 83.2275 127.044 88.6799 123.427 91.9461C121.313 93.8553 118.543 94.928 116.816 95.5968C113.466 96.8942 112.108 96.6921 110.452 98.3159C109.422 99.3257 109.641 99.7037 107.818 102.488C106.332 104.756 105.552 105.947 104.477 106.884C102.595 108.526 101.235 108.146 95.7731 109.338C91.2179 110.331 88.9404 110.828 86.5941 112.253C82.5688 114.697 81.2968 117.892 80.6636 117.549Z" fill="#23A485"/>
<path d="M124.529 86.8164C124.458 87.4181 124.219 87.9879 123.839 88.4607C123.652 88.6847 123.483 88.936 123.275 89.1416C123.071 89.351 122.863 89.5597 122.651 89.7644C121.772 90.5313 120.823 91.2131 119.815 91.8006C118.82 92.393 117.795 92.935 116.745 93.4244C116.218 93.6589 115.69 93.8905 115.158 94.1148C114.63 94.351 114.091 94.5515 113.552 94.7522L111.934 95.3574C111.392 95.5496 110.841 95.7118 110.295 95.8905C109.201 96.2405 108.111 96.6053 106.997 96.877C104.791 97.5126 102.538 97.9426 100.293 98.3866L100.352 98.3705C99.6947 98.5571 98.9949 98.807 98.325 99.0677C97.6492 99.3303 96.9811 99.6162 96.3205 99.9255C95.6612 100.236 95.0131 100.571 94.3733 100.922C93.7408 101.286 93.1131 101.66 92.5048 102.065C90.0637 103.678 87.9019 105.677 86.1044 107.982C85.2243 109.135 84.4369 110.355 83.7497 111.632C83.0803 112.906 82.5166 114.233 82.0645 115.599C81.9567 115.941 81.8282 116.275 81.7371 116.622L81.4543 117.656C81.2839 118.358 81.1325 119.07 80.9707 119.775C80.8953 120.13 80.8023 120.479 80.7375 120.837L80.544 121.911C80.4199 122.629 80.2752 123.34 80.1678 124.06C79.9742 125.507 79.7298 126.941 79.5852 128.397L79.3321 130.572L79.1123 132.753L79.0023 133.844C78.9734 134.209 78.9424 134.573 78.9059 134.937L78.6988 137.123L78.3492 141.504C77.9108 147.352 76.3954 147.318 76.5541 141.41C76.6869 135.484 77.2909 129.578 78.3603 123.747C78.4955 123.016 78.6692 122.29 78.8219 121.562L79.0583 120.471C79.1363 120.107 79.247 119.748 79.342 119.387C79.5418 118.666 79.7292 117.946 79.9394 117.226L80.3104 116.152C80.4308 115.794 80.589 115.448 80.7266 115.096C81.9058 112.326 83.5279 109.765 85.5296 107.512C87.4963 105.276 89.7153 103.274 92.1424 101.545C92.7387 101.1 93.3567 100.685 93.9811 100.279C94.6025 99.8674 95.2352 99.471 95.8831 99.0986C96.5268 98.7186 97.1839 98.3589 97.8543 98.0195C98.5307 97.6799 99.1949 97.3648 99.9335 97.076L99.993 97.0599C101.087 96.7548 102.176 96.4353 103.273 96.153C103.822 96.0114 104.368 95.8625 104.91 95.7023L106.546 95.2505L108.182 94.8047L109.806 94.3253C110.346 94.1618 110.893 94.0139 111.428 93.8376L113.034 93.3151C114.119 92.9933 115.149 92.5537 116.217 92.1905C117.254 91.7686 118.301 91.3525 119.302 90.8603C119.553 90.7374 119.815 90.6309 120.057 90.4943L120.787 90.0893C121.291 89.8388 121.733 89.5124 122.209 89.2179L122.865 88.713C123.09 88.5478 123.27 88.3446 123.478 88.1603C123.873 87.7928 124.169 87.3326 124.34 86.8216L124.529 86.8164Z" fill="#1A735D"/>
<path d="M84.5035 79.5402C83.223 80.5459 82.1245 81.7626 81.2554 83.1378C81.0222 83.4657 80.8286 83.8216 80.6255 84.1685C80.4113 84.508 80.2396 84.8745 80.0526 85.2295C79.8586 85.5806 79.7052 85.9541 79.5448 86.3224L79.301 86.8726L79.0862 87.4361C78.515 88.9417 78.0666 90.4909 77.7455 92.0685C77.44 93.6296 77.1619 95.3077 76.7778 96.9233C76.396 98.5476 75.9461 100.158 75.4571 101.752C74.9676 103.347 74.4623 104.93 74.0129 106.521C73.5653 108.109 73.2244 109.724 72.9927 111.357C72.9348 111.765 72.8809 112.173 72.8375 112.582C72.7912 112.993 72.7535 113.402 72.7475 113.807C72.7366 114.215 72.7048 114.614 72.7179 115.025L72.7551 116.256C72.8157 117.898 72.962 119.544 73.0858 121.189L73.4756 126.127C73.7435 129.419 74.091 132.708 74.3495 136.004C74.6044 139.3 74.8572 142.598 75.084 145.899C75.084 145.899 73.8629 147.709 73.6058 146.067C73.3443 144.425 73.1105 142.781 72.9043 141.132C72.6854 139.486 72.5041 137.835 72.3398 136.182C72.0206 132.876 71.824 129.559 71.6934 126.236C71.5232 122.907 71.5324 119.571 71.7209 116.242L71.8075 114.989C71.8388 114.571 71.9063 114.147 71.9502 113.728C71.9772 113.519 71.9952 113.306 72.0297 113.1L72.1401 112.484C72.2049 112.073 72.2804 111.662 72.3598 111.253C72.663 109.613 73.0378 107.987 73.4223 106.371L73.9685 103.944C74.1354 103.133 74.3008 102.323 74.4436 101.509C74.7337 99.8821 74.9778 98.251 75.2344 96.6235C75.5049 94.9904 75.7155 93.3888 76.1115 91.7102C76.1902 91.2929 76.3161 90.8846 76.4305 90.4744C76.5515 90.0659 76.6498 89.6518 76.7901 89.2486L77.2315 88.0468C77.3727 87.6449 77.5702 87.2616 77.737 86.8693L78.0002 86.2856L78.304 85.7198C78.5091 85.3442 78.7069 84.9662 78.9464 84.6095C79.3906 83.8782 79.8941 83.1844 80.4517 82.5351C81.5213 81.1992 82.8766 80.1186 84.4185 79.372L84.5035 79.5402Z" fill="#23A485"/>
<path d="M59.088 110.947C61.0387 110.171 60.327 103.905 59.9335 100.44C59.366 95.443 58.4344 94.6679 57.2866 88.2492C56.8187 85.6324 56.5535 82.9928 56.0233 77.7137C55.2574 70.0882 55.3358 68.7824 55.0102 66.0127C53.6399 54.3586 48.2295 43.2737 46.1733 43.6878C45.4015 43.8432 45.1648 45.6547 44.6914 49.2777C44.0894 53.8851 45.6524 55.4075 44.7959 58.8626C44.3173 60.7928 43.9289 60.2165 42.3863 63.7388C40.6192 67.7739 39.2874 70.8151 40.1382 73.9932C40.6547 75.9224 41.4516 75.9455 42.1836 78.6957C42.7154 80.6937 42.5437 81.6168 42.82 83.6129C43.0356 85.1714 43.4107 86.5628 44.84 90.185C47.1245 95.9745 48.2667 98.8693 49.8426 101.472C51.7915 104.691 56.7813 111.864 59.088 110.947Z" fill="#23A485"/>
<path d="M46.2583 43.6468C46.8433 44.745 47.3421 45.8868 47.7501 47.062C48.1684 48.2354 48.5195 49.4315 48.8019 50.6446C49.0952 51.8583 49.3246 53.0865 49.4891 54.3241C49.5789 54.9425 49.6299 55.5655 49.7019 56.1872C49.7612 56.8099 49.7798 57.4353 49.819 58.0602C49.8417 58.6855 49.8378 59.3116 49.8483 59.9382C49.8492 60.5645 49.8145 61.1903 49.7926 61.8168L49.5787 65.4955C49.521 66.7173 49.4659 67.9338 49.4314 69.1487C49.4264 70.3618 49.3867 71.5735 49.4415 72.7826C49.5206 75.2183 49.7269 77.6482 50.0597 80.0624C50.3747 82.4956 50.7807 84.9242 51.2245 87.3442C51.4669 88.5494 51.6597 89.7716 51.9824 90.9461C52.1373 91.5363 52.2661 92.1334 52.4419 92.7179C52.633 93.2984 52.8335 93.8758 53.0339 94.4527C53.1371 94.7401 53.2261 95.0321 53.3409 95.3155L53.6916 96.1643L54.4167 97.8503C54.948 98.9591 55.4527 100.071 56.0044 101.174L57.6409 104.491C57.909 105.049 58.1914 105.598 58.4478 106.162L59.2125 107.857C59.7462 108.977 60.1682 110.148 60.6362 111.3L60.9796 112.167C61.0924 112.457 61.1834 112.754 61.2863 113.048L61.8871 114.815C62.3133 115.986 62.63 117.19 62.9708 118.387L63.4747 120.186C63.6231 120.79 63.7505 121.399 63.8893 122.005L64.294 123.827C64.4204 124.436 64.5685 125.041 64.6528 125.657L65.2376 129.338L65.3738 130.259C65.4165 130.567 65.4376 130.876 65.4707 131.185L65.6519 133.036C65.7659 134.271 65.9116 135.503 65.9838 136.74C66.0742 139.215 66.2379 141.687 66.2292 144.16C66.2292 144.16 64.8461 146.661 64.7422 144.212C64.7094 142.986 64.5526 141.769 64.4594 140.549L64.159 136.89C64.1148 136.28 64.0086 135.677 63.9445 135.07L63.7275 133.251L63.5106 131.432C63.4717 131.13 63.4447 130.825 63.3962 130.524L63.2429 129.623L62.6702 126.011C62.5897 125.406 62.4462 124.814 62.3242 124.218L61.9615 122.428C61.8392 121.832 61.7283 121.233 61.5965 120.639L61.1435 118.871C60.8406 117.693 60.5682 116.504 60.1836 115.349C58.7995 110.679 56.9465 106.158 55.0611 101.598C54.5779 100.467 54.1324 99.3064 53.667 98.1637L53.0341 96.4156L52.7089 95.5461C52.6027 95.2554 52.5216 94.9547 52.4267 94.6595C52.2443 94.0666 52.0619 93.4742 51.8699 92.8851C51.6981 92.2896 51.5731 91.6802 51.4228 91.0788C51.114 89.8723 50.8768 88.6694 50.6238 87.4637L49.0322 80.2374C48.4788 77.8095 48.0909 75.3471 47.8713 72.8669C47.6964 70.3795 47.709 67.8824 47.9087 65.3969L48.1914 61.7091C48.2254 61.1065 48.2911 60.5046 48.3115 59.9005C48.325 59.2967 48.353 58.692 48.3551 58.0873L48.3245 56.2719C48.2906 55.6676 48.2782 55.0605 48.2271 54.4565C48.168 53.8536 48.136 53.246 48.0522 52.6449C47.9855 52.0413 47.9149 51.4371 47.8149 50.8373C47.6314 49.6349 47.4037 48.4361 47.1159 47.2496C46.8408 46.0574 46.4977 44.8819 46.0881 43.7288L46.2583 43.6468Z" fill="#1A735D"/>
<path d="M68.6235 97.2843C67.3019 96.9479 67.4081 91.5865 68.0473 87.9268C68.6409 84.6539 69.7932 81.5069 71.4542 78.6229C73.0156 75.9636 73.7469 75.7604 75.0448 73.0614C76.4977 70.0404 76.0803 69.2573 77.2422 66.5463C78.5113 63.5851 79.3199 63.7944 82.7357 58.9068C85.2925 55.2484 86.6495 53.3067 87.539 50.323C88.6722 46.522 88.2021 43.8629 88.7992 43.7951C89.4606 43.72 90.8976 46.8848 90.8192 50.3672C90.7761 52.2804 90.3057 52.9622 88.3653 58.5152C87.0016 62.4182 86.3165 64.3968 86.1584 65.7315C85.7672 69.0345 86.5852 69.805 86.2882 73.4468C86.1786 74.7902 85.9596 77.4755 84.7936 79.9715C82.5771 84.7169 79.0932 84.1643 74.3545 89.4143C70.4066 93.7882 69.755 97.5724 68.6235 97.2843Z" fill="#23A485"/>
<path d="M89.2996 48.2178C89.4461 49.3867 89.3754 50.5725 89.0911 51.7159C88.8442 52.8526 88.5273 53.973 88.1421 55.0708C87.7762 56.1741 87.3404 57.2487 86.8847 58.314L86.1797 59.9019C85.9401 60.4289 85.6726 60.9412 85.4189 61.4611C84.9173 62.505 84.3571 63.5137 83.815 64.535C83.259 65.548 82.6622 66.535 82.0875 67.5365C81.5057 68.5331 80.8754 69.4987 80.2611 70.4747L78.4494 73.3564C76.0319 77.2224 74.0369 81.3358 72.4984 85.626C71.7474 87.7852 71.1101 89.9821 70.5892 92.2077L70.2055 93.8778L69.8876 95.5623C69.6623 96.6816 69.5107 97.8157 69.3195 98.9397C69.0005 101.201 68.7568 103.469 68.5536 105.736C68.4648 106.87 68.3632 108.003 68.3036 109.135C68.2699 109.714 68.2386 110.239 68.2598 110.776C68.2775 111.314 68.3294 111.851 68.4153 112.383C69.1015 116.931 69.6771 121.492 70.0914 126.073C70.4755 130.655 70.7564 135.252 70.781 139.859C70.7967 144.46 69.7312 149.04 69.6377 146.755C69.6266 146.185 69.6105 145.615 69.5753 145.044L69.4992 143.333C69.4449 142.194 69.3515 141.054 69.2942 139.915C68.9678 135.359 68.5648 130.808 68.0853 126.261C67.639 121.713 67.1736 117.161 66.6454 112.62C66.568 112.017 66.5287 111.41 66.5278 110.802C66.5307 110.202 66.5667 109.604 66.6357 109.009C66.7475 107.855 66.8798 106.707 67.0472 105.563C67.3703 103.275 67.8224 101.009 68.3019 98.7552C68.8005 96.5042 69.3556 94.2695 69.9673 92.051C70.5586 89.8277 71.2246 87.6264 71.9176 85.4319C73.3215 81.0559 74.8664 76.6735 77.0851 72.577C77.6676 71.5778 78.2312 70.536 78.8415 69.5742L80.6562 66.6725C81.8433 64.7263 83.0195 62.7732 84.122 60.7833C85.2428 58.8011 86.2705 56.7756 87.2052 54.7068C87.6709 53.6716 88.0865 52.6182 88.4519 51.5466L88.7029 50.7369C88.7806 50.4656 88.8434 50.1915 88.9148 49.9173C89.0504 49.3759 89.1179 48.8198 89.1158 48.2617L89.2996 48.2178Z" fill="#1A735D"/>
<path d="M93.9747 76.4339C101.035 71.7781 101.583 71.6449 103.201 70.0135C106.953 66.2304 106.206 64.7283 109.648 61.2181C114.127 56.6503 120.578 53.9062 121.914 55.3061C122.61 56.0354 121.448 57.397 118.979 64.3826C117.1 69.6993 117.376 70.0339 116.303 71.5926C114.746 73.8549 112.581 75.1683 108.251 77.7951C104.273 80.2084 103.148 80.3023 101.159 82.3744C99.976 83.6067 99.9139 84.0531 97.8217 86.5368C96.4948 88.1652 95.0649 89.7073 93.5409 91.1539C90.9102 93.5644 88.6011 97.1277 83.9758 96.6657C83.054 96.5736 85.74 81.8642 93.9747 76.4339Z" fill="#23A485"/>
<path d="M118.192 59.2778C116.878 61.5753 115.316 63.722 113.533 65.6794C112.647 66.6682 111.711 67.6121 110.73 68.5074C110.25 68.968 109.732 69.3877 109.23 69.8259C108.724 70.2593 108.184 70.6523 107.661 71.0667L106.035 72.2251L105.262 72.7861C105.001 72.9698 104.746 73.1594 104.504 73.3641L103.766 73.9629C103.518 74.1609 103.297 74.388 103.062 74.5987C102.585 75.0148 102.164 75.4878 101.725 75.9411C100.889 76.8903 100.101 77.8858 99.3475 78.9344C98.6046 79.9912 97.839 81.0669 97.0241 82.127C96.2038 83.1977 95.2915 84.1951 94.2976 85.1078C93.3006 86.0133 92.2291 86.8335 91.0943 87.5598C90.0423 88.2688 89.1006 89.1283 88.2993 90.1106C87.4793 91.1125 86.7354 92.1739 86.0735 93.2861C85.4107 94.4059 84.8052 95.5585 84.2591 96.7393C83.7295 97.929 83.2037 99.1224 82.7706 100.353C81.8804 102.802 81.1377 105.303 80.5467 107.841C79.9461 110.375 79.4837 112.938 79.083 115.504C78.6895 118.072 78.3708 120.65 78.1599 123.235C77.9533 125.821 77.8392 128.412 77.8449 131.002C77.858 132.296 77.8703 133.59 77.9192 134.883C77.9685 136.176 78.0585 137.459 78.1312 138.774C78.4105 144.006 76.4915 144.128 76.1207 138.907C75.9483 136.299 75.8063 133.623 75.8709 130.984C75.918 128.336 76.0944 125.695 76.3823 123.067C76.6686 120.44 77.0609 117.825 77.5904 115.238C78.1134 112.65 78.7858 110.095 79.5479 107.573C80.2935 105.044 81.2018 102.569 82.1719 100.123C83.1365 97.6701 84.2629 95.2838 85.5437 92.9795C86.1876 91.8191 86.905 90.7008 87.6914 89.6314C88.4865 88.5295 89.4325 87.5442 90.5019 86.7043C92.5423 85.1619 94.3187 83.3001 95.7622 81.1911C96.5127 80.1494 97.2048 79.0463 97.9752 77.9638C98.7418 76.8574 99.5832 75.8043 100.493 74.812C100.973 74.3313 101.436 73.8329 101.955 73.3936C102.211 73.1714 102.454 72.9327 102.722 72.725L103.522 72.0987C103.786 71.8876 104.061 71.6909 104.346 71.5095L105.187 70.9466L106.806 69.881C111.077 66.9105 114.863 63.3008 118.031 59.1792L118.192 59.2778Z" fill="#1A735D"/>
<path d="M25.3996 144.65L20.1919 146.131L37.9723 150.559L64.2212 156.854L86.3104 163.578L105.669 157.949L126.568 151.872L193.601 139.106L209.761 140.258L221.93 139.106L218.467 136.082H181.839L25.3996 144.65Z" fill="#23A485"/>
<path d="M22.9114 141.403C22.9114 141.403 26.1626 143.978 38.785 141.403C51.4074 138.827 196.011 130.115 196.011 130.115L214.638 135.298C214.638 135.298 218.176 135.966 219.993 134.631C221.81 133.295 216.455 138.732 209.761 140.258C203.067 141.784 132.688 152.899 126.568 151.872C126.568 151.872 114.639 151.203 109.188 148.842C109.188 148.842 100.941 157.14 86.3102 163.578C86.3102 163.578 67.4723 165.915 60.5873 160.955C53.7024 155.996 42.0362 152.18 35.1513 151.036C28.2663 149.891 22.9114 141.403 22.9114 141.403Z" fill="#B3E1D6"/>
<path d="M6.46973 69.2498H20.5647" stroke="#B3E1D6" stroke-width="3" stroke-miterlimit="10"/>
<path d="M6.46973 73.302H20.5647" stroke="#B3E1D6" stroke-width="3" stroke-miterlimit="10"/>
<path d="M6.46973 77.3541H20.5647" stroke="#B3E1D6" stroke-width="3" stroke-miterlimit="10"/>
<path d="M110.232 16.5453H124.327" stroke="#B3E1D6" stroke-width="3" stroke-miterlimit="10"/>
<path d="M110.232 20.5974H124.327" stroke="#B3E1D6" stroke-width="3" stroke-miterlimit="10"/>
<path d="M110.232 24.6495H124.327" stroke="#B3E1D6" stroke-width="3" stroke-miterlimit="10"/>
<path d="M158.951 74.2163C163.746 74.2163 167.632 70.3396 167.632 65.5575C167.632 60.7753 163.746 56.8986 158.951 56.8986C154.157 56.8986 150.27 60.7753 150.27 65.5575C150.27 70.3396 154.157 74.2163 158.951 74.2163Z" fill="#B3E1D6"/>
<path d="M142.363 63.9004C144.86 63.9004 146.885 61.8811 146.885 59.3901C146.885 56.8992 144.86 54.8799 142.363 54.8799C139.866 54.8799 137.841 56.8992 137.841 59.3901C137.841 61.8811 139.866 63.9004 142.363 63.9004Z" fill="#B3E1D6"/>
<path d="M146.516 46.66C147.957 46.66 149.125 45.4953 149.125 44.0584C149.125 42.6216 147.957 41.4568 146.516 41.4568C145.076 41.4568 143.908 42.6216 143.908 44.0584C143.908 45.4953 145.076 46.66 146.516 46.66Z" fill="#B3E1D6"/>
<path d="M160.955 52.1359C164.409 52.1359 167.208 49.3436 167.208 45.8992C167.208 42.4547 164.409 39.6624 160.955 39.6624C157.502 39.6624 154.703 42.4547 154.703 45.8992C154.703 49.3436 157.502 52.1359 160.955 52.1359Z" fill="#B3E1D6"/>
</svg>
