<svg width="242" height="194" viewBox="0 0 242 194" fill="none" xmlns="http://www.w3.org/2000/svg">
<path opacity="0.1" d="M38.7955 159.096C28.004 142.904 11.9551 123.003 16.1979 88.704C21.0402 49.5084 77.1192 -12.715 137.095 33.9465C160.661 52.296 161.952 94.1095 193.451 83.3955C224.949 72.6815 246.14 155.872 198.823 166.659C151.507 177.446 59.2717 189.832 38.7955 159.096Z" fill="#23A485"/>
<path opacity="0.1" d="M118.74 178.488C164.752 178.488 202.052 174.538 202.052 169.665C202.052 164.792 164.752 160.841 118.74 160.841C72.7288 160.841 35.4291 164.792 35.4291 169.665C35.4291 174.538 72.7288 178.488 118.74 178.488Z" fill="#CFEBE4"/>
<path d="M146.018 131.73C143.551 129.839 125.427 130.542 123.744 131.73C122.037 132.917 125.658 136.287 131.376 139.68C133.774 141.11 135.25 142.516 138.524 139.898C141.799 137.305 147.679 132.99 146.018 131.73Z" fill="#CCE9FF"/>
<path d="M132.414 138.541H137.233V161.496H132.414V138.541ZM119.685 165.568H149.385C149.915 165.568 150.331 165.132 150.331 164.574C150.331 164.09 149.985 163.677 149.547 163.605L137.256 161.52H132.437L119.57 163.605C119.109 163.677 118.763 164.09 118.763 164.574C118.74 165.108 119.155 165.568 119.685 165.568ZM146.019 65.6763C131.053 64.9976 126.672 79.3475 125.819 88.5828C124.966 97.7939 122.614 106.132 115.742 110.011C108.848 113.889 102.345 115.659 106.311 121.912C110.277 128.166 123.905 134.469 136.149 134.154C148.394 133.863 160.915 126.954 164.327 108.508C167.717 90.0615 160.845 66.355 146.019 65.6763Z" fill="#CCE9FF"/>
<path d="M132.921 162.247L133.82 165.641L129.462 167.022L128.079 162.853L132.921 162.247ZM106.519 159.799V162.514H110.393L110.831 159.799H106.519ZM136.265 81.1411L130.408 96.3152L130.269 96.6545C129.923 97.5514 129.093 98.1089 128.217 98.1089L111.569 97.9877C110.9 97.9877 110.347 97.406 110.347 96.703C110.347 96.0728 110.808 95.5395 111.384 95.4426L127.894 92.8974L125.704 94.6911L129.647 78.8384C130.131 76.8749 132.045 75.6872 133.913 76.2205C135.78 76.7295 136.91 78.7414 136.403 80.7048C136.38 80.8503 136.311 80.9957 136.265 81.1411Z" fill="#EFACA5"/>
<path d="M113.391 95.1275L107.695 95.0063C106.289 95.0063 105.159 96.3395 105.159 97.9878H113.46L113.391 95.1275Z" fill="#E7AD87"/>
<path d="M127.064 82.9834L136.173 85.3104L137.671 76.778C138.063 74.4752 136.565 72.2937 134.328 71.9543C132.437 71.6634 130.638 72.7785 129.993 74.6449L127.064 82.9834Z" fill="url(#paint0_linear_84_1578)"/>
<path d="M136.473 99.5876L108.41 114.568C105.805 115.949 104.237 118.834 104.398 121.912L106.52 159.823H110.831L116.642 119.27L138.502 103.151L136.473 99.5876ZM131.515 47.8115C131.515 47.8115 140.716 43.5211 145.65 57.3862C150.239 70.2333 145.143 67.7123 137.718 67.7608C131.677 67.8093 121 73.8207 123.698 65.8943C125.635 60.2465 124.621 56.659 124.621 56.659L131.515 47.8115Z" fill="#605F5F"/>
<path d="M137.741 68.0516L133.705 69.9423C131.307 71.0574 129.762 73.5783 129.785 76.3416C129.854 81.9168 131.054 95.7334 135.527 101.042H149.178C151.299 91.249 150.077 76.1962 150.077 76.1962C150.215 72.5117 147.633 69.3121 144.151 68.8758L137.741 68.0516Z" fill="url(#paint1_linear_84_1578)"/>
<path d="M138.133 72.6331C136.703 72.8028 135.412 71.7362 135.251 70.2576L134.121 61.1435L139.309 60.5132L140.416 69.5547C140.6 71.0818 139.563 72.4634 138.133 72.6331Z" fill="#EFACA5"/>
<path d="M133.844 67.9304L133.636 67.9547C130.177 68.4395 127.018 65.8701 126.557 62.2341L125.565 54.2835L138.294 52.5382L139.285 60.4888C139.724 64.1248 137.302 67.4699 133.844 67.9304Z" fill="#FAB9AF"/>
<path d="M139.7 57.4347L138.617 59.8102C138.617 59.8102 137.164 61.1192 136.749 57.8226C136.403 55.0108 134.466 55.4956 134.466 55.4956C134.466 55.4956 127.825 60.7798 123.928 57.1439C120.861 54.2836 125.819 49.0478 131.515 47.8116L138.986 51.2294L139.7 57.4347Z" fill="#605F5F"/>
<path d="M137.81 59.495C137.971 60.9494 138.317 62.0159 139.47 61.8705C139.47 61.8705 140.623 60.6585 140.784 58.9375C140.946 57.4831 140.738 56.465 139.585 56.6105C138.455 56.7559 137.648 58.0406 137.81 59.495Z" fill="#FAB9AF"/>
<path d="M149.178 101.042H135.527L113.69 114.907C111.108 116.531 110.093 119.925 111.315 122.833L128.079 162.853L132.921 162.247L123.905 123.633C131.469 123.294 145.489 122.106 149.155 117.792C155.381 110.52 149.178 101.042 149.178 101.042Z" fill="#605F5F"/>
<path d="M102.645 75.9295L110.439 97.915H85.1434L77.9491 77.19C77.7416 76.5598 78.1797 75.9053 78.8023 75.9053H102.645V75.9295Z" fill="#23A485"/>
<path d="M102.645 75.9296H103.867C104.513 75.9296 105.089 76.3659 105.32 76.9961L112.652 97.915H110.439L102.645 75.9296ZM85.7429 100.048H110.439V97.9392H85.2125V99.4906C85.2125 99.7814 85.4431 100.048 85.7429 100.048ZM110.439 100.048H126.05C126.603 100.048 127.064 99.5633 127.064 98.9815C127.064 98.3998 126.603 97.915 126.05 97.915H110.439V100.048Z" fill="#23A485"/>
<path d="M96.3037 86.8617C96.788 88.3888 96.2115 89.9402 95.0124 90.3522C93.8134 90.7643 92.476 89.8674 91.9917 88.3403C91.5075 86.8132 92.084 85.2619 93.283 84.8498C94.4821 84.4377 95.8425 85.3346 96.3037 86.8617Z" fill="white"/>
<path d="M146.941 80.729L141.084 96.194L140.946 96.5333C140.6 97.4545 139.747 98.012 138.87 98.012L122.199 97.8908C121.53 97.8908 120.977 97.309 120.977 96.5818C120.977 95.9274 121.438 95.3941 122.037 95.3214L138.524 92.7519L136.311 94.5699L140.231 78.4263C140.715 76.4386 142.629 75.2509 144.52 75.7599C146.411 76.2689 147.54 78.2808 147.056 80.2685C147.056 80.4139 146.987 80.5836 146.941 80.729Z" fill="#FAB9AF"/>
<path d="M124.021 95.0064L118.325 94.8852C116.919 94.8852 115.789 96.2426 115.789 97.9151H124.09L124.021 95.0064Z" fill="#FAB9AF"/>
<path d="M137.695 82.6441L146.803 85.0196L148.302 76.3175C148.694 73.9905 147.195 71.7605 144.958 71.4211C143.068 71.1302 141.269 72.2695 140.623 74.1602L137.695 82.6441Z" fill="url(#paint2_linear_84_1578)"/>
<path d="M126.604 163.774L124.482 165.98L119.709 167.192C119.225 167.313 118.81 167.701 118.648 168.21L118.395 168.937C118.279 169.301 118.533 169.664 118.902 169.664L134.282 169.277C134.79 169.277 135.182 168.816 135.135 168.283L133.913 163.701L131.584 164.283C130.8 164.55 129.947 164.453 129.255 164.041L128.425 163.532C127.849 163.168 127.111 163.265 126.604 163.774ZM104.56 160.599L102.438 162.805L97.6649 164.017C97.1807 164.138 96.7656 164.526 96.6042 165.035L96.3506 165.762C96.2353 166.125 96.4889 166.489 96.8579 166.489L110.762 166.174C111.27 166.174 111.662 165.713 111.615 165.18L111.247 160.502L109.54 161.108C108.756 161.374 107.903 161.278 107.211 160.865L106.381 160.356C105.782 159.993 105.044 160.09 104.56 160.599Z" fill="#23A485"/>
<path d="M89.2011 169.665C89.2472 169.665 89.3164 169.665 89.3625 169.64C89.8929 169.543 90.2618 169.083 90.1696 168.574L77.6025 104.023C77.5103 103.514 77.003 103.175 76.4496 103.272C75.9192 103.369 75.5503 103.83 75.6425 104.339L88.2326 168.889C88.3018 169.35 88.7169 169.665 89.2011 169.665ZM56.7805 169.665C57.2647 169.665 57.6798 169.35 57.7489 168.889L71.1691 104.339C71.2614 103.83 70.8924 103.345 70.3621 103.272C69.8087 103.199 69.3014 103.539 69.2091 104.023L55.7889 168.574C55.6967 169.083 56.0656 169.568 56.596 169.64C56.6652 169.665 56.7113 169.665 56.7805 169.665Z" fill="#074F3D"/>
<path d="M180.339 105.702L62.3471 105.702V99.6903L180.339 99.6903V105.702Z" fill="#074F3D"/>
<path d="M85.0398 146.985H60.8511V145.167H85.0398V146.985Z" fill="#074F3D"/>
<path d="M179.361 169.665C179.407 169.665 179.477 169.665 179.523 169.64C180.053 169.543 180.422 169.083 180.33 168.574L167.786 104.023C167.694 103.514 167.186 103.175 166.633 103.272C166.103 103.369 165.734 103.83 165.826 104.339L178.393 168.889C178.462 169.35 178.9 169.665 179.361 169.665ZM146.941 169.665C147.425 169.665 147.84 169.35 147.909 168.889L161.329 104.339C161.422 103.83 161.053 103.345 160.522 103.272C159.969 103.199 159.462 103.539 159.369 104.023L145.949 168.574C145.857 169.083 146.226 169.568 146.756 169.64C146.825 169.665 146.872 169.665 146.941 169.665Z" fill="#074F3D"/>
<path d="M175.212 146.985H151.023V145.167H175.212V146.985Z" fill="#074F3D"/>
<path d="M72.3917 76.5114H58.3489C57.0115 76.5114 55.9277 75.3721 55.9277 73.9662V59.2042C55.9277 57.7983 57.0115 56.6591 58.3489 56.6591H72.3917C73.7291 56.6591 74.8129 57.7983 74.8129 59.2042V73.9662C74.8129 75.3721 73.7291 76.5114 72.3917 76.5114Z" fill="#23A485"/>
<path opacity="0.39" d="M70.0167 73.8207H57.7033C56.6426 73.8207 55.7664 72.8996 55.7664 71.7846V58.8406C55.7664 57.7256 56.6426 56.8044 57.7033 56.8044H70.0167C71.0774 56.8044 71.9536 57.7256 71.9536 58.8406V71.7846C71.9536 72.8996 71.1004 73.8207 70.0167 73.8207Z" fill="white"/>
<path d="M67.0885 68.9971L66.3967 66.9367H62.9379L62.2461 68.9971H60.0786L63.4452 60.295H65.9125L69.2791 68.9971H67.0885ZM65.9355 65.4096C65.2899 63.5431 64.944 62.4766 64.8518 62.2342C64.7826 61.9918 64.7134 61.7979 64.6904 61.6524C64.552 62.1615 64.1369 63.3977 63.4682 65.4096H65.9355Z" fill="white"/>
<path d="M106.681 35.3523H92.6153C91.2779 35.3523 90.1941 34.2131 90.1941 32.8072V18.0452C90.1941 16.6393 91.2779 15.5 92.6153 15.5H106.658C107.995 15.5 109.079 16.6393 109.079 18.0452V32.8072C109.079 34.2131 107.995 35.3523 106.681 35.3523Z" fill="#23A485"/>
<path opacity="0.39" d="M104.49 32.6617H92.1766C91.1158 32.6617 90.2396 31.7406 90.2396 30.6255V17.6815C90.2396 16.5665 91.1158 15.6454 92.1766 15.6454H104.49C105.551 15.6454 106.427 16.5665 106.427 17.6815V30.6255C106.427 31.7406 105.574 32.6617 104.49 32.6617Z" fill="white"/>
<path d="M101.792 25.4624C101.792 26.2381 101.492 26.8683 100.87 27.3047C100.247 27.7652 99.3939 27.9834 98.2871 27.9834C97.2725 27.9834 96.3732 27.8137 95.5892 27.4501V25.7533C96.2349 26.02 96.7652 26.1896 97.2264 26.3108C97.6876 26.432 98.0796 26.4805 98.4485 26.4805C98.8866 26.4805 99.2325 26.4078 99.4631 26.2381C99.6937 26.0927 99.809 25.8503 99.809 25.5594C99.809 25.3897 99.7629 25.2443 99.6476 25.0988C99.5323 24.9776 99.3939 24.8322 99.1864 24.711C98.9789 24.5898 98.5638 24.3959 97.9643 24.1293C97.3878 23.8869 96.9497 23.6445 96.6499 23.4021C96.3502 23.1839 96.1196 22.9173 95.9582 22.6022C95.7737 22.287 95.7045 21.9477 95.7045 21.5356C95.7045 20.7599 95.9812 20.1782 96.5577 19.7176C97.1342 19.2813 97.9182 19.0632 98.9328 19.0632C99.417 19.0632 99.9012 19.1116 100.339 19.2328C100.777 19.354 101.262 19.4995 101.746 19.6934L101.1 21.1235C100.593 20.9296 100.178 20.8084 99.832 20.7357C99.5092 20.663 99.1633 20.6145 98.8636 20.6145C98.4716 20.6145 98.1949 20.6872 97.9873 20.8569C97.7798 21.0266 97.6876 21.2205 97.6876 21.4871C97.6876 21.6568 97.7337 21.8022 97.8029 21.8992C97.8951 22.0204 98.0104 22.1416 98.1949 22.2386C98.3793 22.3355 98.7944 22.5537 99.4631 22.8446C100.362 23.2324 100.962 23.6202 101.285 24.0081C101.631 24.4201 101.792 24.8807 101.792 25.4624Z" fill="white"/>
<path d="M201.336 99.6119H187.293C185.956 99.6119 184.872 98.4726 184.872 97.0667V82.3047C184.872 80.8988 185.956 79.7596 187.293 79.7596H201.336C202.674 79.7596 203.757 80.8988 203.757 82.3047V97.0667C203.757 98.4726 202.674 99.6119 201.336 99.6119Z" fill="#23A485"/>
<path opacity="0.39" d="M199.168 96.9213H186.855C185.794 96.9213 184.918 96.0001 184.918 94.8851V81.9411C184.918 80.8261 185.794 79.905 186.855 79.905H199.168C200.229 79.905 201.105 80.8261 201.105 81.9411V94.8851C201.105 96.0244 200.229 96.9213 199.168 96.9213Z" fill="white"/>
<path d="M192.828 92.1217H190.845V83.4682H196.287V84.971H192.828V87.2011H196.057V88.7039H192.828V92.1217Z" fill="white"/>
<path d="M172.836 51.1324H158.793C157.456 51.1324 156.372 49.9932 156.372 48.5873V33.8253C156.372 32.4194 157.456 31.2801 158.793 31.2801H172.836C174.173 31.2801 175.257 32.4194 175.257 33.8253V48.5873C175.257 49.9932 174.173 51.1324 172.836 51.1324Z" fill="#23A485"/>
<path opacity="0.39" d="M170.576 48.2964H158.263C157.202 48.2964 156.326 47.3753 156.326 46.2602V33.3162C156.326 32.2012 157.202 31.2801 158.263 31.2801H170.576C171.637 31.2801 172.513 32.2012 172.513 33.3162V46.2602C172.513 47.3753 171.66 48.2964 170.576 48.2964Z" fill="white"/>
<path d="M169.7 39.0853C169.7 40.5155 169.262 41.6062 168.362 42.3577C167.463 43.1091 166.195 43.4969 164.512 43.4969H161.814V34.8434H164.788C166.333 34.8434 167.555 35.207 168.409 35.9584C169.262 36.6856 169.7 37.7279 169.7 39.0853ZM167.601 39.1338C167.601 37.2673 166.702 36.3462 164.904 36.3462H163.82V41.9941H164.696C166.633 41.9698 167.601 41.0245 167.601 39.1338Z" fill="white"/>
<defs>
<linearGradient id="paint0_linear_84_1578" x1="133.64" y1="73.323" x2="128.408" y2="85.8067" gradientUnits="userSpaceOnUse">
<stop stop-color="#9BE0CF"/>
<stop offset="0.49" stop-color="#23A485"/>
<stop offset="1" stop-color="#0F6651"/>
</linearGradient>
<linearGradient id="paint1_linear_84_1578" x1="142.508" y1="71.5337" x2="127.506" y2="99.6624" gradientUnits="userSpaceOnUse">
<stop stop-color="#9BE0CF"/>
<stop offset="0.49" stop-color="#23A485"/>
<stop offset="1" stop-color="#0F6651"/>
</linearGradient>
<linearGradient id="paint2_linear_84_1578" x1="144.271" y1="72.8161" x2="138.877" y2="85.4562" gradientUnits="userSpaceOnUse">
<stop stop-color="#9BE0CF"/>
<stop offset="0.49" stop-color="#23A485"/>
<stop offset="1" stop-color="#0F6651"/>
</linearGradient>
</defs>
</svg>
