<svg width="24" height="24" viewBox="0 0 24 24" fill="none" xmlns="http://www.w3.org/2000/svg">
<path d="M12 15.5C11.0717 15.5 10.1815 15.1313 9.52512 14.4749C8.86874 13.8185 8.49999 12.9283 8.49999 12C8.49999 11.0717 8.86874 10.1815 9.52512 9.52513C10.1815 8.86875 11.0717 8.5 12 8.5C12.9283 8.5 13.8185 8.86875 14.4749 9.52513C15.1312 10.1815 15.5 11.0717 15.5 12C15.5 12.9283 15.1312 13.8185 14.4749 14.4749C13.8185 15.1313 12.9283 15.5 12 15.5ZM19.43 12.97C19.47 12.65 19.5 12.33 19.5 12C19.5 11.67 19.47 11.34 19.43 11L21.54 9.37C21.73 9.22 21.78 8.95 21.66 8.73L19.66 5.27C19.54 5.05 19.27 4.96 19.05 5.05L16.56 6.05C16.04 5.66 15.5 5.32 14.87 5.07L14.5 2.42C14.46 2.18 14.25 2 14 2H9.99999C9.74999 2 9.53999 2.18 9.49999 2.42L9.12999 5.07C8.49999 5.32 7.95999 5.66 7.43999 6.05L4.94999 5.05C4.72999 4.96 4.45999 5.05 4.33999 5.27L2.33999 8.73C2.20999 8.95 2.26999 9.22 2.45999 9.37L4.56999 11C4.52999 11.34 4.49999 11.67 4.49999 12C4.49999 12.33 4.52999 12.65 4.56999 12.97L2.45999 14.63C2.26999 14.78 2.20999 15.05 2.33999 15.27L4.33999 18.73C4.45999 18.95 4.72999 19.03 4.94999 18.95L7.43999 17.94C7.95999 18.34 8.49999 18.68 9.12999 18.93L9.49999 21.58C9.53999 21.82 9.74999 22 9.99999 22H14C14.25 22 14.46 21.82 14.5 21.58L14.87 18.93C15.5 18.67 16.04 18.34 16.56 17.94L19.05 18.95C19.27 19.03 19.54 18.95 19.66 18.73L21.66 15.27C21.78 15.05 21.73 14.78 21.54 14.63L19.43 12.97Z" fill="#23A485"/>
</svg>
